<svg width="24" height="24" viewBox="0 0 24 24" fill="none" xmlns="http://www.w3.org/2000/svg">
<path d="M21.1573 5C21.2329 5 21.3087 5 21.3843 5.00054C21.4481 5.00088 21.5119 5.00179 21.5757 5.00341C21.7144 5.00717 21.8546 5.01529 21.9921 5.03983C22.1296 5.06315 22.263 5.10669 22.3878 5.16903C22.6384 5.29562 22.8421 5.49773 22.9696 5.74627C23.0326 5.8699 23.0766 6.00237 23.0999 6.13916C23.1248 6.27542 23.1328 6.41433 23.1365 6.55214C23.1383 6.61529 23.1392 6.67853 23.1395 6.74176C23.14 6.81686 23.14 6.89196 23.14 6.96718V17.0948C23.14 17.17 23.14 17.245 23.1395 17.3203C23.1393 17.3836 23.1383 17.4468 23.1365 17.5101C23.1328 17.6475 23.1248 17.7866 23.0999 17.9228C23.0752 18.0612 23.0342 18.1899 22.9696 18.3156C22.8414 18.5646 22.6378 18.7667 22.3878 18.8928C22.263 18.9554 22.1297 18.9991 21.9921 19.0224C21.8546 19.0468 21.7144 19.055 21.5757 19.0588C21.5117 19.0602 21.448 19.0611 21.3843 19.0614C21.3087 19.0619 21.2329 19.0619 21.1573 19.0619H2.98272C2.90703 19.0619 2.83119 19.0619 2.75562 19.0614C2.69181 19.0609 2.62817 19.0601 2.56436 19.0587C2.42533 19.055 2.28516 19.0468 2.14809 19.0225C2.00854 18.9977 1.87885 18.9569 1.75212 18.8928C1.62765 18.8302 1.51389 18.7482 1.41504 18.65C1.31628 18.5522 1.23366 18.4393 1.17025 18.3156C1.10735 18.1919 1.06344 18.0595 1.04 17.9228C1.01529 17.7866 1.00697 17.6475 1.00319 17.5101C1.0015 17.4468 1.00069 17.3835 1.00029 17.3203C1 17.245 1 17.17 1 17.0948V6.96706C1 6.89184 1 6.81673 1.00029 6.7419C1.00061 6.67858 1.00157 6.61536 1.00319 6.55214C1.00697 6.41433 1.01514 6.27542 1.04 6.13916C1.06348 6.0024 1.10744 5.86996 1.1704 5.7463C1.29842 5.49719 1.50212 5.29509 1.75224 5.16905C1.87705 5.10667 2.0104 5.06308 2.14797 5.03971C2.28516 5.01529 2.42533 5.00704 2.56436 5.00329C2.62817 5.0016 2.69181 5.00093 2.75562 5.00039C2.83119 5 2.90703 5 2.98272 5H21.1573ZM21.1573 5.46869H2.98272L2.7584 5.46911C2.69805 5.46936 2.63767 5.47031 2.57734 5.47179C2.47107 5.47466 2.34713 5.48038 2.23144 5.50094C2.13936 5.51615 2.05007 5.54506 1.96655 5.5867C1.88635 5.62713 1.81305 5.67997 1.74934 5.74328C1.68561 5.80621 1.63233 5.87891 1.59153 5.95864C1.54952 6.04138 1.52036 6.13004 1.50507 6.22157C1.48406 6.33695 1.47832 6.45973 1.47542 6.56488C1.47385 6.62488 1.47297 6.68489 1.47272 6.74492L1.47245 6.92072V17.1415L1.47284 17.3176C1.47311 17.3776 1.474 17.4375 1.47554 17.4975C1.47819 17.6023 1.48406 17.725 1.50494 17.8396C1.52022 17.9313 1.54937 18.0201 1.59138 18.103C1.63212 18.1827 1.68531 18.2554 1.74895 18.3183C1.81251 18.3817 1.88574 18.4346 1.96588 18.475C2.04963 18.5169 2.13918 18.5459 2.23156 18.5612C2.34843 18.5819 2.47763 18.5878 2.5772 18.5904C2.63735 18.5917 2.69755 18.5925 2.75773 18.5928C2.83269 18.5933 2.90622 18.5933 2.97982 18.5933H21.1573C21.2317 18.5933 21.3063 18.5933 21.3805 18.5928C21.443 18.5925 21.5039 18.5916 21.565 18.5903C21.6622 18.5876 21.7914 18.5819 21.9093 18.5611C22.0087 18.5433 22.0927 18.5161 22.173 18.4755C22.3345 18.3943 22.466 18.2638 22.5486 18.103C22.5905 18.0205 22.6196 17.9322 22.6348 17.8409C22.6557 17.7263 22.6614 17.6029 22.6644 17.4973C22.666 17.4376 22.6668 17.3779 22.667 17.3182C22.6676 17.2428 22.6676 17.169 22.6676 17.095V6.96718C22.6676 6.89319 22.6676 6.81934 22.6669 6.74544C22.6668 6.68445 22.666 6.62469 22.6643 6.56502C22.6614 6.45922 22.6557 6.33597 22.6351 6.22258C22.617 6.12212 22.5897 6.03905 22.5488 5.95945C22.4665 5.79864 22.3351 5.66818 22.1737 5.58697C22.093 5.54608 22.0087 5.51884 21.9084 5.50094C21.7928 5.48035 21.6689 5.47468 21.5629 5.47179C21.5022 5.47028 21.4416 5.46938 21.3809 5.46909L21.1573 5.46869ZM6.81965 9.74681C6.62527 9.97324 6.31708 10.1526 6.00861 10.1261C5.96853 9.81997 6.12275 9.49416 6.29698 9.29461C6.49124 9.0614 6.82647 8.89517 7.1012 8.88162C7.13473 9.20115 7.0074 9.51395 6.81965 9.74681ZM7.09772 10.186H7.09757C7.27146 10.1992 7.77279 10.2523 8.09372 10.7232C8.06694 10.7431 7.49875 11.0683 7.50538 11.7518C7.51208 12.5679 8.22718 12.84 8.23388 12.8467C8.22718 12.8666 8.12054 13.2316 7.85972 13.6097C7.63251 13.9415 7.39839 14.2666 7.02416 14.2732C6.66314 14.2798 6.54276 14.0609 6.1285 14.0609C5.71407 14.0609 5.58046 14.2666 5.23941 14.2798C4.87851 14.293 4.60458 13.9281 4.37729 13.5963C3.90911 12.9262 3.55496 11.7053 4.03624 10.8825C4.27031 10.4711 4.69804 10.2124 5.15913 10.2057C5.51348 10.1992 5.84108 10.4381 6.05504 10.4381C6.26896 10.4381 6.64962 10.1594 7.09772 10.186ZM11.5634 9.26115C12.5369 9.26115 13.2149 9.92693 13.2149 10.8962C13.2149 11.8689 12.523 12.5382 11.539 12.5382H10.4612V14.2389H9.68247V9.26115H11.5634H11.5634ZM10.4612 11.8896H11.3547C12.0329 11.8896 12.4187 11.5275 12.4187 10.8997C12.4187 10.272 12.0328 9.91308 11.3582 9.91308H10.4612V11.8896ZM13.4081 13.2073C13.4081 12.5692 13.8983 12.2035 14.8022 12.1484L15.7723 12.0897V11.8137C15.7723 11.4102 15.5046 11.1895 15.0283 11.1895C14.6353 11.1895 14.3502 11.3895 14.2913 11.6964H13.5888C13.6098 11.0515 14.2216 10.5824 15.0492 10.5824C15.9393 10.5824 16.5199 11.0446 16.5199 11.7621V14.2388H15.8002V13.642H15.7828C15.5777 14.0317 15.1256 14.2766 14.6353 14.2766C13.9122 14.2766 13.4081 13.849 13.4081 13.2073ZM15.7723 12.8866V12.6072L14.9066 12.6624C14.4197 12.6934 14.1661 12.8727 14.1661 13.1866C14.1661 13.4902 14.4303 13.6868 14.844 13.6868C15.3723 13.6868 15.7723 13.3522 15.7723 12.8866H15.7723ZM17.1815 15.5701V14.9735C17.2303 14.9803 17.3483 14.9872 17.411 14.9872C17.7552 14.9872 17.9499 14.8425 18.0681 14.4697L18.1377 14.2491L16.8199 10.6272H17.6334L18.5514 13.5661H18.5688L19.4866 10.6272H20.2794L18.913 14.4318C18.6 15.3047 18.2419 15.591 17.484 15.591C17.4248 15.591 17.2336 15.5842 17.1815 15.5702V15.5701Z" fill="black"/>
</svg>
