<svg width="40" height="40" viewBox="0 0 40 40" fill="none" xmlns="http://www.w3.org/2000/svg">
<path d="M6.1 14.8C6.7 14.8 7.4 14.4 7.8 13.9C8.2 13.4 8.4 12.8 8.4 12.2C8.4 12.1 8.4 12 8.4 12C7.8 12 7.1 12.4 6.6 12.9C6.3 13.3 6 14 6 14.6C6 14.7 6 14.8 6 14.8H6.1ZM9.4 18.5C9.4 16.9 10.6 16.2 10.7 16.2C9.9 15 8.6 15 8.2 15C7.3 15 6.6 15.5 6.1 15.5C5.6 15.5 4.9 15 4.1 15C2.6 15 1 16.3 1 18.7C1 20.2 1.6 21.8 2.3 22.8C2.9 23.7 3.4 24.4 4.2 24.4C5 24.4 5.3 23.9 6.2 23.9C7.2 23.9 7.4 24.4 8.2 24.4C9 24.4 9.6 23.6 10.1 22.9C10.7 21.9 11 21.1 11 21C10.9 21 9.4 20.4 9.4 18.5ZM18.9 12.9H14.5V24.2H16.5V20.4H18.8C21.1 20.4 22.7 18.9 22.7 16.6C22.7 14.3 21.1 12.9 18.9 12.9ZM18.3 18.8H16.5V14.5H18.3C19.7 14.5 20.6 15.3 20.6 16.6C20.6 18 19.8 18.8 18.3 18.8ZM26.9 15.7C24.8 15.7 23.5 16.8 23.4 18.4H25.2C25.3 17.7 25.9 17.3 26.8 17.3C27.8 17.3 28.3 17.8 28.3 18.7V19.3L26.1 19.4C24.1 19.5 23 20.4 23 21.9C23 23.4 24.2 24.4 25.8 24.4C26.9 24.4 27.9 23.8 28.4 22.9V24.2H30.3V18.4C30.3 16.8 29 15.7 26.9 15.7ZM28.4 21.1C28.4 22.1 27.5 22.8 26.4 22.8C25.6 22.8 25 22.4 25 21.7C25 21 25.5 20.6 26.5 20.6L28.4 20.5V21.1ZM37.3 15.9L35.3 22.5L33.3 15.9H31.2L34.1 24.2C34.1 24.2 34 24.6 34 24.7C33.8 25.5 33.4 25.8 32.6 25.8C32.5 25.8 32.1 25.8 32 25.8V27.3C32.1 27.3 32.7 27.3 32.8 27.3C34.7 27.3 35.6 26.6 36.3 24.5L39.3 15.9H37.3Z" fill="#1D1D1D"/>
</svg>
