<svg width="24" height="24" viewBox="0 0 24 24" fill="none" xmlns="http://www.w3.org/2000/svg">
<path fill-rule="evenodd" clip-rule="evenodd" d="M19.9992 13.9004L19.7992 13.7004V10.6004C19.7992 7.50039 17.9992 4.70039 15.0992 3.50039C13.1992 2.70039 10.8992 2.70039 8.99922 3.50039C6.19922 4.70039 4.29922 7.50039 4.29922 10.6004V13.7004C2.99922 15.0004 2.99922 17.1004 4.29922 18.4004C4.49922 18.6004 4.79922 18.8004 5.19922 18.8004H8.39922C8.49922 19.1004 8.59922 19.5004 8.79922 19.9004C9.29922 20.8004 10.2992 21.8004 11.9992 21.8004C13.6992 21.8004 14.6992 20.8004 15.1992 19.9004C15.3992 19.5004 15.5992 19.1004 15.5992 18.8004H18.3992C18.9992 18.8004 19.5992 18.6004 19.9992 18.1004C21.0992 16.9004 21.0992 15.1004 19.9992 13.9004ZM13.8992 19.1004C13.5992 19.7004 12.9992 20.2004 11.9992 20.2004C10.9992 20.2004 10.4992 19.7004 10.0992 19.1004C10.0992 19.0004 9.99922 18.9004 9.99922 18.8004H13.9992C13.9992 18.9004 13.8992 19.0004 13.8992 19.1004ZM18.8992 17.0004C18.7992 17.1004 18.5992 17.2004 18.2992 17.2004H5.29922C4.59922 16.5004 4.69922 15.3004 5.39922 14.6004L5.49922 14.5004C5.59922 14.4004 5.69922 14.2004 5.69922 14.0004V10.6004C5.69922 8.10039 7.19922 5.80039 9.49922 4.90039C11.0992 4.20039 12.8992 4.20039 14.3992 4.90039C16.6992 5.90039 18.1992 8.10039 18.1992 10.6004V14.0004C18.1992 14.2004 18.2992 14.4004 18.3992 14.6004L18.7992 15.0004C19.4992 15.5004 19.4992 16.5004 18.8992 17.0004Z" fill="black"/>
</svg>
