<svg width="24" height="24" viewBox="0 0 24 24" fill="none" xmlns="http://www.w3.org/2000/svg">
<path fill-rule="evenodd" clip-rule="evenodd" d="M21.6 8.08996C21.57 7.87996 21.44 7.69996 21.24 7.60996L20.38 7.23996L21.37 6.46996C21.54 6.33996 21.63 6.12996 21.6 5.91996C21.57 5.70996 21.44 5.52996 21.24 5.43996L14.24 2.43996C14.05 2.35996 13.82 2.37996 13.65 2.50996L2.64998 10.52C2.47998 10.64 2.38998 10.85 2.40998 11.05C2.42998 11.26 2.54998 11.44 2.73998 11.54L3.61998 11.98L2.65998 12.68C2.48998 12.8 2.39998 13.01 2.41998 13.21C2.43998 13.42 2.55998 13.6 2.74998 13.7L3.62998 14.14L2.66998 14.84C2.49998 14.96 2.40998 15.17 2.42998 15.37C2.44998 15.58 2.56998 15.76 2.75998 15.86L3.63998 16.3L2.67998 17C2.50998 17.12 2.41998 17.33 2.43998 17.53C2.45998 17.74 2.57998 17.92 2.76998 18.02L9.76998 21.52C9.97998 21.62 10.22 21.6 10.41 21.46L21.41 12.96C21.58 12.83 21.67 12.62 21.64 12.41C21.61 12.2 21.48 12.02 21.28 11.93L20.42 11.56L21.41 10.79C21.58 10.66 21.67 10.45 21.64 10.24C21.61 10.03 21.48 9.84996 21.28 9.75996L20.42 9.38996L21.41 8.62996C21.58 8.49996 21.67 8.28996 21.64 8.07996L21.6 8.08996ZM19.83 8.31996L17.85 9.84996V9.20996L19.29 8.09996L19.83 8.32996V8.31996ZM14.08 3.68996L19.83 6.14996L18.93 6.84996C18.86 6.87996 18.8 6.92996 18.74 6.98996L17.18 8.18996L11.65 5.44996L14.07 3.68996H14.08ZM10.56 6.24996L16.65 9.27996V15.01C16.65 15.01 16.66 15.06 16.66 15.08L14.1 17.06V11.8C14.1 11.57 13.97 11.36 13.76 11.26L7.66998 8.34996L10.56 6.24996ZM6.56998 9.15996L12.37 11.93L9.93998 13.81L4.15998 10.92L6.56998 9.16996V9.15996ZM9.73998 15.05C9.94998 15.15 10.19 15.13 10.38 14.99L12.91 13.03V13.67L9.93998 15.96L4.15998 13.07L4.82998 12.58L9.73998 15.04V15.05ZM9.73998 17.21C9.94998 17.31 10.19 17.29 10.38 17.15L12.91 15.19V15.83L9.93998 18.12L5.08998 15.7C5.08998 15.7 5.05998 15.69 5.04998 15.68L4.15998 15.23L4.82998 14.75L9.73998 17.21ZM9.93998 20.29L4.15998 17.4L4.82998 16.92L9.73998 19.38C9.94998 19.48 10.19 19.46 10.38 19.32L12.91 17.36V18L9.93998 20.29ZM19.83 12.64L17.85 14.17V13.53L19.29 12.42L19.83 12.65V12.64ZM19.83 10.48L17.85 12.01V11.36C17.85 11.36 17.86 11.36 17.87 11.36L19.29 10.26L19.83 10.49V10.48Z" fill="black"/>
</svg>
