<svg width="24" height="24" viewBox="0 0 24 24" fill="none" xmlns="http://www.w3.org/2000/svg">
<path fill-rule="evenodd" clip-rule="evenodd" d="M17.9992 4.2002H16.7992V3.0002C16.7992 2.6002 16.4992 2.2002 15.9992 2.2002C15.4992 2.2002 15.1992 2.6002 15.1992 3.0002V4.2002H8.79922V3.0002C8.79922 2.6002 8.49922 2.2002 7.99922 2.2002C7.49922 2.2002 7.19922 2.6002 7.19922 3.0002V4.2002H5.99922C4.49922 4.2002 3.19922 5.5002 3.19922 7.0002V19.0002C3.19922 20.5002 4.39922 21.8002 5.99922 21.8002H17.9992C19.4992 21.8002 20.7992 20.6002 20.7992 19.0002V7.0002C20.7992 5.5002 19.4992 4.2002 17.9992 4.2002ZM19.1992 19.0002C19.1992 19.7002 18.5992 20.2002 17.9992 20.2002H5.99922C5.29922 20.2002 4.79922 19.6002 4.79922 19.0002V9.8002H19.2992V19.0002H19.1992ZM19.1992 8.2002H4.79922V7.0002C4.79922 6.3002 5.39922 5.8002 5.99922 5.8002H17.9992C18.6992 5.8002 19.1992 6.4002 19.1992 7.0002V8.2002Z" fill="black"/>
<path d="M9 13C9 13.6 8.6 14 8 14C7.4 14 7 13.6 7 13C7 12.4 7.4 12 8 12C8.6 12 9 12.4 9 13Z" fill="black"/>
<path d="M13 13C13 13.6 12.6 14 12 14C11.4 14 11 13.6 11 13C11 12.4 11.4 12 12 12C12.6 12 13 12.4 13 13Z" fill="black"/>
<path d="M17 13C17 13.6 16.6 14 16 14C15.4 14 15 13.6 15 13C15 12.4 15.4 12 16 12C16.6 12 17 12.4 17 13Z" fill="black"/>
<path d="M9 17C9 17.6 8.6 18 8 18C7.4 18 7 17.6 7 17C7 16.4 7.4 16 8 16C8.6 16 9 16.4 9 17Z" fill="black"/>
<path d="M13 17C13 17.6 12.6 18 12 18C11.4 18 11 17.6 11 17C11 16.4 11.4 16 12 16C12.6 16 13 16.4 13 17Z" fill="black"/>
<path d="M17 17C17 17.6 16.6 18 16 18C15.4 18 15 17.6 15 17C15 16.4 15.4 16 16 16C16.6 16 17 16.4 17 17Z" fill="black"/>
</svg>
