<svg width="24" height="24" viewBox="0 0 24 24" fill="none" xmlns="http://www.w3.org/2000/svg">
<path d="M15.2602 15.7457L15.2602 15.7457C15.1867 15.5804 15.1354 15.4426 15.1028 15.2735C15.0714 15.1107 15.0595 14.9293 15.0507 14.6807M15.2602 15.7457L15.4511 13.7289L15.1672 13.6317C15.1123 13.7921 15.0759 13.928 15.0581 14.0949C15.041 14.255 15.042 14.435 15.0507 14.6807M15.2602 15.7457C15.646 16.6131 16.4612 17.2302 17.3604 17.2937C18.455 17.371 19.3689 16.7374 19.8338 15.6562C19.9136 15.4706 19.9695 15.3276 19.9997 15.1587C20.0289 14.9953 20.0316 14.8201 20.03 14.5738C20.0276 14.1924 19.9894 13.8731 19.8865 13.5757C19.7828 13.2764 19.62 13.0182 19.3941 12.7497L19.3941 12.7497M15.2602 15.7457L19.3941 12.7497M15.0507 14.6807L15.3505 14.6701L15.0507 14.6807C15.0507 14.6807 15.0507 14.6807 15.0507 14.6807ZM19.3941 12.7497C19.1498 12.4595 18.8975 12.2395 18.6028 12.0908M19.3941 12.7497L18.6028 12.0908M7.72184 14.6944L7.72198 14.6941C7.76659 14.6146 7.83329 14.5806 7.84727 14.5734L7.8479 14.5731C7.87127 14.5611 7.89127 14.5548 7.90065 14.552C7.9206 14.546 7.93767 14.5431 7.94524 14.5419C7.96272 14.539 7.98048 14.5373 7.99398 14.5361C8.02295 14.5337 8.06096 14.5316 8.10482 14.5297C8.19378 14.5258 8.32115 14.5222 8.48057 14.5189L8.48227 14.5188C8.8479 14.5132 8.90234 14.5069 8.93593 14.5031L7.72184 14.6944ZM7.72184 14.6944C7.70366 14.7269 7.69401 14.7579 7.69068 14.7686C7.68569 14.7848 7.68146 14.8011 7.67795 14.8158C7.67086 14.8456 7.66389 14.8804 7.65733 14.9168C7.6441 14.9903 7.63049 15.0817 7.61929 15.1744L7.61929 15.1745M7.72184 14.6944L7.61929 15.1745M7.61929 15.1745L7.58073 15.4942L7.54022 15.8301M7.61929 15.1745L7.54022 15.8301M7.54022 15.8301H7.87857H8.3209H14.2736H14.612L14.5715 15.4942M7.54022 15.8301L14.5715 15.4942M14.5715 15.4942L14.5329 15.1745L14.5329 15.1744M14.5715 15.4942L14.5329 15.1744M14.5329 15.1744C14.5217 15.0817 14.5081 14.9903 14.4949 14.9168C14.4883 14.8804 14.4813 14.8456 14.4742 14.8158C14.4707 14.8011 14.4665 14.7848 14.4615 14.7686C14.4582 14.7579 14.4485 14.7269 14.4304 14.6944L14.4302 14.6941M14.5329 15.1744L14.4302 14.6941M14.4302 14.6941C14.3926 14.6271 14.3402 14.594 14.3227 14.5834M14.4302 14.6941L14.3227 14.5834M3.06758 8.12894L3.06762 8.12898C4.45719 6.83215 6.3079 5.98638 8.28027 5.74031C8.54761 5.70693 9.47386 5.69241 10.3299 5.70385M3.06758 8.12894L23.0723 11.3842C22.8198 10.7954 22.3946 10.2905 21.8922 10.0204C21.5508 9.83679 21.2314 9.76791 20.1134 9.58525C19.3687 9.46355 18.6316 9.3254 18.4662 9.27942L18.4661 9.27939C17.8438 9.10655 17.4081 8.82963 16.4294 7.91485C15.3605 6.91572 14.0914 6.24407 12.6068 5.88755C11.9865 5.7385 11.7536 5.72276 10.3299 5.70385M3.06758 8.12894L3.06328 8.13311C3.00995 8.18491 2.90018 8.2961 2.83903 8.45274C2.76998 8.62962 2.77041 8.84657 2.9135 9.05953C3.06134 9.27955 3.25758 9.39319 3.4723 9.37966C3.65423 9.3682 3.77698 9.26768 3.81358 9.23417L3.81401 9.23377C5.50184 7.68235 7.32194 7.01742 9.96244 7.0143C11.6286 7.01236 12.786 7.22915 13.7903 7.70751L13.7904 7.70751C14.5736 8.08052 14.9575 8.36027 16.2145 9.5086C16.7667 10.013 17.5969 10.4607 18.3094 10.6364L18.3095 10.6364C18.4542 10.6721 19.1585 10.7974 19.8641 10.9147L19.8642 10.9147C20.6941 11.0526 21.1238 11.15 21.3885 11.2839C21.6144 11.3982 21.7253 11.541 21.8716 11.8699L21.8716 11.87C21.9397 12.0232 21.9661 12.0944 21.9841 12.2321C22.0049 12.3909 22.0126 12.6277 22.0232 13.1089C22.0239 13.1401 22.0245 13.1703 22.0252 13.1996C22.0314 13.477 22.0358 13.6761 22.0305 13.826C22.0276 13.9077 22.022 13.9648 22.0147 14.0051C22.0123 14.0179 22.01 14.0279 22.008 14.0354C22.0044 14.0361 22.0002 14.0368 21.9954 14.0376C21.9253 14.0488 21.8254 14.0488 21.6456 14.0487C21.6317 14.0487 21.6173 14.0487 21.6024 14.0487C21.4148 14.0487 21.259 14.055 21.1403 14.0702C21.0816 14.0777 21.0212 14.0886 20.9663 14.1066C20.9231 14.1207 20.828 14.1558 20.7605 14.2459L20.7604 14.246C20.7247 14.2938 20.7039 14.3475 20.6935 14.3756C20.6803 14.4117 20.6683 14.4516 20.6579 14.4915C20.637 14.5716 20.6182 14.6665 20.6055 14.7597L20.6055 14.7598L20.5653 15.0571L20.5181 15.4062L20.8703 15.3972L21.657 15.377C21.8823 15.3712 22.0689 15.3638 22.2225 15.3473C22.3753 15.3309 22.5155 15.3037 22.6404 15.2482C22.9168 15.1254 23.0385 14.8988 23.1524 14.6583C23.2253 14.5044 23.2712 14.3882 23.2892 14.154C23.305 13.9489 23.3011 13.6359 23.2924 13.0817L23.292 13.0541C23.2833 12.4976 23.2785 12.19 23.2518 11.9747C23.222 11.7331 23.1629 11.5955 23.0749 11.3902L23.0723 11.3842L3.06758 8.12894ZM10.3299 5.70385L10.3259 6.00382L10.3299 5.70385ZM18.6028 12.0908C18.307 11.9416 17.9878 11.8738 17.6241 11.8602M18.6028 12.0908L17.6241 11.8602M17.6241 11.8602C17.2087 11.8446 16.9826 11.8661 16.7005 11.9813L17.6241 11.8602ZM14.3227 14.5834C14.2997 14.5696 14.2798 14.5619 14.2696 14.5582M14.3227 14.5834L14.2696 14.5582M14.2696 14.5582C14.2487 14.5506 14.2313 14.547 14.2245 14.5456M14.2696 14.5582L14.2245 14.5456M14.2245 14.5456C14.2088 14.5424 14.1949 14.5408 14.1882 14.5401M14.2245 14.5456L14.1882 14.5401M14.1882 14.5401C14.1726 14.5384 14.1551 14.5372 14.139 14.5363M14.1882 14.5401L14.139 14.5363M14.139 14.5363C14.1054 14.5344 14.0593 14.5327 14.004 14.5311M14.139 14.5363L14.004 14.5311M14.004 14.5311C13.8927 14.5278 13.735 14.5246 13.5454 14.5217M14.004 14.5311L13.5454 14.5217M13.5454 14.5217C13.1657 14.5157 12.6533 14.5103 12.117 14.5058M13.5454 14.5217L12.117 14.5058M12.117 14.5058C11.0445 14.4968 9.87366 14.4912 9.47358 14.4912M12.117 14.5058L9.47358 14.4912M9.47358 14.4912C9.07962 14.4912 9.01116 14.4947 8.94253 14.5023L9.47358 14.4912ZM17.9365 13.2602L17.9365 13.2602C18.5982 13.5082 18.9656 14.422 18.6276 15.1821C18.4911 15.4891 18.3394 15.6576 18.0228 15.8414L18.0227 15.8414C17.9272 15.8969 17.7571 15.9387 17.5539 15.9398C17.3531 15.941 17.1652 15.9021 17.0416 15.84C16.4766 15.556 16.1594 14.7753 16.3794 14.0891C16.6081 13.3761 17.3168 13.0279 17.9365 13.2602ZM4.41413 16.0902L4.63597 16.2921L4.41413 16.0902C4.31129 16.2032 4.25775 16.3508 4.25775 16.4996C4.25775 16.6483 4.31128 16.796 4.41413 16.909C4.51784 17.0229 4.66486 17.093 4.82483 17.093C5.48066 17.093 6.10322 16.8065 6.55754 16.3075C7.011 15.8094 7.26152 15.1393 7.26152 14.4459C7.26152 13.7525 7.011 13.0825 6.55754 12.5843C6.10322 12.0853 5.48066 11.7989 4.82483 11.7989C4.66486 11.7989 4.51784 11.8689 4.41413 11.9828C4.31128 12.0958 4.25775 12.2435 4.25775 12.3922C4.25775 12.541 4.31128 12.6887 4.41413 12.8016C4.51784 12.9156 4.66486 12.9856 4.82483 12.9856C5.1607 12.9856 5.48923 13.1319 5.73614 13.4032C5.98391 13.6753 6.12735 14.05 6.12735 14.4459C6.12735 14.8418 5.98391 15.2165 5.73614 15.4887C5.48923 15.7599 5.1607 15.9062 4.82483 15.9062C4.66485 15.9062 4.51783 15.9763 4.41413 16.0902ZM4.46391 13.8726H1.75822C1.7002 13.8726 1.63018 13.8726 1.56333 13.8782C1.49712 13.8838 1.41381 13.8962 1.33193 13.9313C1.24412 13.9689 1.15792 14.0328 1.09813 14.1344C1.0409 14.2316 1.0224 14.3387 1.0224 14.4399C1.0224 14.5401 1.04052 14.6499 1.10233 14.7487C1.16768 14.8531 1.26103 14.9123 1.35008 14.9438C1.4319 14.9727 1.51432 14.9799 1.57599 14.9825C1.62165 14.9844 1.67351 14.9841 1.71785 14.9838C1.73226 14.9837 1.74587 14.9836 1.75822 14.9836H3.16251H4.46391C4.47625 14.9836 4.48985 14.9837 4.50424 14.9838C4.5486 14.9841 4.60048 14.9844 4.64616 14.9825C4.70783 14.9799 4.79026 14.9727 4.87208 14.9438C4.96112 14.9123 5.05446 14.8531 5.1198 14.7487C5.18161 14.6499 5.19973 14.5401 5.19973 14.4399C5.19973 14.3387 5.18123 14.2316 5.12401 14.1344C5.06422 14.0328 4.97803 13.9689 4.89022 13.9313C4.80834 13.8963 4.72504 13.8838 4.65882 13.8782C4.59196 13.8726 4.52194 13.8726 4.46391 13.8726ZM4.1415 10.2H1.43582C1.3778 10.2 1.30778 10.2 1.24093 10.2056C1.17472 10.2112 1.09141 10.2237 1.00953 10.2587C0.921721 10.2963 0.835519 10.3602 0.775722 10.4618C0.718499 10.559 0.7 10.6661 0.7 10.7673C0.7 10.8676 0.71812 10.9773 0.77993 11.0761C0.845281 11.1806 0.93863 11.2397 1.02767 11.2712C1.10949 11.3001 1.19192 11.3073 1.25359 11.3099C1.29925 11.3118 1.35111 11.3115 1.39544 11.3112C1.40986 11.3111 1.42347 11.3111 1.43582 11.3111H2.84011H4.1415C4.15384 11.3111 4.16745 11.3111 4.18185 11.3112C4.2262 11.3115 4.27808 11.3118 4.32376 11.3099C4.38543 11.3073 4.46786 11.3001 4.54968 11.2712C4.63872 11.2397 4.73206 11.1805 4.7974 11.0761C4.8592 10.9773 4.87732 10.8676 4.87732 10.7673C4.87732 10.6661 4.85882 10.559 4.80161 10.4618C4.74182 10.3603 4.65562 10.2964 4.56782 10.2588C4.48594 10.2237 4.40263 10.2113 4.33642 10.2057C4.26956 10.2 4.19954 10.2 4.1415 10.2Z" stroke="#1D1D1D" stroke-width="0.6"/>
</svg>
