<svg width="24" height="24" viewBox="0 0 24 24" fill="none" xmlns="http://www.w3.org/2000/svg">
<path fill-rule="evenodd" clip-rule="evenodd" d="M19.0004 8.40039H18.6004V8.00039C18.6004 6.60039 17.4004 5.40039 16.0004 5.40039H5.00039C3.60039 5.40039 2.40039 6.60039 2.40039 8.00039V14.1004C2.40039 15.5004 3.50039 16.6004 4.90039 16.7004H5.40039V17.0004C5.40039 18.4004 6.60039 19.6004 8.00039 19.6004H19.0004C20.4004 19.6004 21.6004 18.4004 21.6004 17.0004V11.0004C21.6004 9.60039 20.4004 8.40039 19.0004 8.40039ZM19.0004 9.60039C19.6004 9.60039 20.0004 9.90039 20.3004 10.4004H6.70039C7.00039 9.90039 7.40039 9.60039 8.00039 9.60039H19.0004ZM5.40039 11.0004V15.5004H4.90039C4.10039 15.5004 3.60039 14.9004 3.60039 14.1004V8.00039C3.60039 7.20039 4.20039 6.60039 5.00039 6.60039H16.0004C16.8004 6.60039 17.4004 7.20039 17.4004 8.00039V8.40039H8.00039C6.60039 8.40039 5.40039 9.60039 5.40039 11.0004ZM20.4004 17.0004C20.4004 17.8004 19.8004 18.4004 19.0004 18.4004H8.00039C7.20039 18.4004 6.60039 17.8004 6.60039 17.0004V13.6004H20.4004V17.0004ZM20.4004 12.4004H6.60039V11.6004H20.4004V12.4004ZM16.3004 18.1004C16.6004 18.1004 16.9004 18.0004 17.1004 17.9004H17.2004C17.3004 17.9004 17.3004 17.9004 17.3004 17.9004H17.4004C17.4004 17.9004 17.4004 17.9004 17.5004 17.9004C17.7004 18.0004 18.0004 18.1004 18.3004 18.1004C19.3004 18.1004 20.1004 17.3004 20.1004 16.3004C20.1004 15.3004 19.3004 14.4004 18.3004 14.4004C17.8004 14.4004 17.5004 14.5004 17.3004 14.6004C17.1004 14.5004 16.8004 14.4004 16.3004 14.4004C15.3004 14.4004 14.4004 15.2004 14.4004 16.3004C14.4004 17.3004 15.2004 18.1004 16.3004 18.1004ZM16.3004 15.6004C16.6004 15.6004 16.6004 15.7004 16.7004 15.7004C16.7004 15.7004 16.7004 15.7004 16.8004 15.7004C16.8004 15.7004 16.9004 15.7004 16.9004 15.8004C17.0004 15.9004 17.2004 15.9004 17.4004 15.9004C17.6004 15.9004 17.8004 15.8004 17.9004 15.8004L18.0004 15.7004C18.0004 15.7004 18.0004 15.7004 18.1004 15.7004C18.1004 15.7004 18.2004 15.6004 18.5004 15.6004C18.9004 15.6004 19.1004 15.9004 19.1004 16.3004C19.1004 16.7004 18.8004 16.9004 18.5004 16.9004C18.4004 16.9004 18.3004 16.9004 18.2004 16.8004C18.1004 16.8004 18.1004 16.7004 18.0004 16.7004C17.9004 16.7004 17.8004 16.6004 17.6004 16.6004C17.4004 16.6004 17.3004 16.6004 17.2004 16.7004C17.1004 16.7004 17.0004 16.8004 17.0004 16.8004C16.8004 16.9004 16.7004 16.9004 16.7004 16.9004C16.3004 16.9004 16.0004 16.6004 16.0004 16.3004C15.6004 15.9004 15.9004 15.6004 16.3004 15.6004Z" fill="black"/>
</svg>
