<svg width="24" height="24" viewBox="0 0 24 24" fill="none" xmlns="http://www.w3.org/2000/svg">
<path fill-rule="evenodd" clip-rule="evenodd" d="M6.80867 2.25C6.82062 2.25 6.8326 2.25 6.84462 2.25L17.1917 2.25C17.6588 2.24998 18.0651 2.24996 18.4004 2.28464C18.7599 2.32182 19.1089 2.40425 19.4356 2.61493C19.9186 2.92642 20.2825 3.40276 20.5022 3.94845C20.642 4.29576 20.6979 4.66424 20.7243 5.07397C20.75 5.47267 20.75 5.96439 20.75 6.57147V21C20.75 21.2734 20.6012 21.5251 20.3617 21.657C20.1222 21.7889 19.83 21.78 19.5989 21.6338L17.1761 20.1005L15.0073 21.6149C14.7494 21.795 14.4065 21.795 14.1486 21.6149L12.0002 20.1148L9.85178 21.6149C9.59385 21.795 9.25094 21.795 8.99301 21.6149L6.82417 20.1005L4.40104 21.6338C4.17001 21.78 3.87774 21.7889 3.63825 21.657C3.39876 21.5251 3.25 21.2734 3.25 21L3.25 6.57467C3.25 5.96606 3.24999 5.47332 3.27578 5.07387C3.30223 4.66411 3.35824 4.29569 3.49803 3.94845C3.7175 3.4033 4.08056 2.9267 4.56402 2.61493C4.89083 2.40418 5.24014 2.3218 5.59967 2.28463C5.93509 2.24996 6.34157 2.24998 6.80867 2.25ZM5.75391 3.77668C5.52036 3.80082 5.43043 3.84105 5.37695 3.87554C5.19139 3.99521 5.01091 4.20706 4.8895 4.50864C4.83553 4.6427 4.79465 4.82992 4.77266 5.17051C4.75037 5.51589 4.75 5.96009 4.75 6.59995V19.6379L6.44358 18.5662C6.69891 18.4047 7.02627 18.4121 7.274 18.5851L9.4224 20.0853L11.5708 18.5851C11.8287 18.405 12.1716 18.405 12.4296 18.5851L14.578 20.0853L16.7263 18.5851C16.9741 18.4121 17.3015 18.4047 17.5568 18.5662L19.25 19.6378V6.59995C19.25 5.96003 19.2497 5.51584 19.2274 5.17042C19.2055 4.82979 19.1646 4.64263 19.1107 4.50864C18.9895 4.2076 18.8087 3.99548 18.6227 3.87554C18.5691 3.84099 18.4793 3.8008 18.246 3.77668C17.9972 3.75093 17.6692 3.75 17.1557 3.75H6.84462C6.33119 3.75 6.003 3.75093 5.75391 3.77668ZM8.58333 12.9C8.58333 12.4858 8.91912 12.15 9.33333 12.15H14.6658C15.08 12.15 15.4167 12.4858 15.4167 12.9C15.4167 13.3142 15.0809 13.65 14.6667 13.65H9.33421C8.91999 13.65 8.58333 13.3142 8.58333 12.9Z" fill="#1D1D1D"/>
<path d="M9.33333 6.75C8.91912 6.75 8.58333 7.08579 8.58333 7.5C8.58333 7.91422 8.91912 8.25 9.33333 8.25H14.6658C15.08 8.25 15.4167 7.91422 15.4167 7.5C15.4167 7.08579 15.0809 6.75 14.6667 6.75H9.33333Z" fill="#1D1D1D"/>
<path d="M9.33333 9.45C8.91912 9.45 8.58333 9.78579 8.58333 10.2C8.58333 10.6142 8.91912 10.95 9.33333 10.95H14.6658C15.08 10.95 15.4167 10.6142 15.4167 10.2C15.4167 9.78579 15.0809 9.45 14.6667 9.45H9.33333Z" fill="#1D1D1D"/>
</svg>
