<svg width="24" height="24" viewBox="0 0 24 24" fill="none" xmlns="http://www.w3.org/2000/svg">
<path fill-rule="evenodd" clip-rule="evenodd" d="M15.4992 11.8002H12.2992V6.5002C12.2992 6.1002 11.9992 5.7002 11.4992 5.7002C10.9992 5.7002 10.7992 6.1002 10.7992 6.5002V12.0002C10.7992 12.7002 11.3992 13.2002 11.9992 13.2002H15.4992C15.8992 13.2002 16.2992 12.9002 16.2992 12.4002C16.2992 11.9002 15.8992 11.8002 15.4992 11.8002ZM11.9992 2.2002C6.59922 2.2002 2.19922 6.6002 2.19922 12.0002C2.19922 17.4002 6.59922 21.8002 11.9992 21.8002C17.3992 21.8002 21.7992 17.4002 21.7992 12.0002C21.7992 6.6002 17.3992 2.2002 11.9992 2.2002ZM11.9992 20.2002C7.39922 20.2002 3.79922 16.5002 3.79922 12.0002C3.79922 7.4002 7.49922 3.8002 11.9992 3.8002C16.5992 3.8002 20.1992 7.5002 20.1992 12.0002C20.1992 16.6002 16.5992 20.2002 11.9992 20.2002Z" fill="#1D1D1D"/>
</svg>
