<svg width="24" height="24" viewBox="0 0 24 24" fill="none" xmlns="http://www.w3.org/2000/svg">
<path d="M12 5C8.1 5 5 8.1 5 12C5 15.9 8.1 19 12 19C15.9 19 19 15.9 19 12C19 8.1 15.9 5 12 5ZM15.4 14.6C15.6 14.8 15.6 15.1 15.4 15.3C15.2 15.5 14.9 15.5 14.7 15.3L12 12.7L9.4 15.3C9.2 15.5 8.9 15.5 8.7 15.3C8.5 15.1 8.5 14.8 8.7 14.6L11.3 12L8.6 9.4C8.4 9.2 8.4 8.9 8.6 8.7C8.8 8.5 9.1 8.5 9.3 8.7L12 11.3L14.6 8.7C14.8 8.5 15.1 8.5 15.3 8.7C15.5 8.9 15.5 9.2 15.3 9.4L12.7 12L15.4 14.6Z" fill="#1D1D1D"/>
</svg>
