<svg width="24" height="24" viewBox="0 0 24 24" fill="none" xmlns="http://www.w3.org/2000/svg">
<path fill-rule="evenodd" clip-rule="evenodd" d="M8.50042 11.8998C8.40042 11.2998 8.50042 10.6998 8.70042 10.3998C8.90042 9.9998 8.70042 9.5998 8.40042 9.3998C8.00042 9.1998 7.60042 9.3998 7.40042 9.6998C7.00042 10.2998 6.90042 11.1998 7.00042 12.0998C7.20042 12.9998 7.60042 13.9998 8.60042 14.5998C8.90042 14.7998 9.40042 14.6998 9.60042 14.3998C9.80042 14.0998 9.70042 13.5998 9.40042 13.3998C8.90042 12.9998 8.60042 12.4998 8.50042 11.8998ZM21.1004 7.6998C20.6004 5.8998 19.1004 4.2998 16.5004 4.2998C16.5004 4.2998 16.5004 4.2998 16.4004 4.2998C15.3004 2.9998 13.7004 2.2998 12.0004 2.2998C10.3004 2.2998 8.60042 2.9998 7.60042 4.2998C7.60042 4.2998 7.60042 4.2998 7.50042 4.2998C4.90042 4.2998 3.40042 5.8998 2.90042 7.6998C2.70042 8.4998 2.60042 9.4998 2.80042 10.2998C3.00042 11.0998 3.40042 11.8998 4.10042 12.2998C4.30042 12.3998 4.50042 12.5998 4.60042 12.6998C4.70042 12.8998 4.80042 12.9998 4.80042 12.9998V19.9998C4.80042 20.9998 5.60042 21.7998 6.60042 21.7998H17.6004C18.6004 21.7998 19.4004 20.9998 19.4004 19.9998V12.9998C19.4004 12.9998 19.4004 12.8998 19.5004 12.7998C19.6004 12.6998 19.8004 12.4998 20.0004 12.3998C20.7004 11.8998 21.1004 11.1998 21.3004 10.2998C21.4004 9.4998 21.3004 8.4998 21.1004 7.6998ZM17.8004 19.9998C17.8004 20.0998 17.7004 20.1998 17.6004 20.1998H6.60042C6.50042 20.1998 6.40042 20.0998 6.40042 19.9998V17.7998H17.9004V19.9998H17.8004ZM19.7004 9.9998C19.6004 10.5998 19.3004 10.9998 19.0004 11.0998C18.7004 11.2998 18.4004 11.4998 18.2004 11.7998C17.9004 12.0998 17.7004 12.4998 17.7004 12.9998V16.1998H6.30042V12.9998C6.30042 12.4998 6.10042 12.0998 5.80042 11.7998C5.50042 11.4998 5.20042 11.2998 5.00042 11.0998C4.70042 10.8998 4.40042 10.4998 4.30042 9.9998C4.20042 9.3998 4.20042 8.6998 4.40042 8.0998C4.70042 7.0998 5.40042 6.0998 6.70042 5.8998C6.40042 6.4998 6.20042 7.1998 6.20042 7.9998C6.20042 8.3998 6.50042 8.7998 7.00042 8.7998C7.40042 8.7998 7.80042 8.4998 7.80042 7.9998C7.80042 5.3998 9.70042 3.7998 12.0004 3.7998C14.3004 3.7998 16.2004 5.4998 16.2004 7.9998C16.2004 8.3998 16.5004 8.7998 17.0004 8.7998C17.5004 8.7998 17.8004 8.4998 17.8004 7.9998C17.8004 7.1998 17.7004 6.4998 17.4004 5.7998C18.7004 6.0998 19.4004 6.9998 19.7004 7.9998C19.8004 8.6998 19.8004 9.3998 19.7004 9.9998ZM12.0004 9.1998C11.6004 9.1998 11.2004 9.5998 11.2004 9.9998V13.9998C11.2004 14.3998 11.5004 14.7998 12.0004 14.7998C12.5004 14.7998 12.8004 14.4998 12.8004 13.9998V9.9998C12.8004 9.5998 12.4004 9.1998 12.0004 9.1998ZM15.7004 9.2998C15.3004 9.4998 15.2004 9.8998 15.4004 10.2998C15.6004 10.5998 15.7004 11.1998 15.6004 11.7998C15.5004 12.3998 15.2004 12.8998 14.7004 13.2998C14.4004 13.4998 14.3004 13.9998 14.5004 14.2998C14.7004 14.5998 15.2004 14.6998 15.5004 14.4998C16.5004 13.8998 16.9004 12.8998 17.1004 11.9998C17.2004 11.0998 17.1004 10.1998 16.8004 9.4998C16.5004 9.2998 16.0004 9.0998 15.7004 9.2998Z" fill="black"/>
</svg>
