<svg width="24" height="24" viewBox="0 0 24 24" fill="none" xmlns="http://www.w3.org/2000/svg">
<path fill-rule="evenodd" clip-rule="evenodd" d="M9.25 3C9.25 2.58579 9.58579 2.25 10 2.25H19C20.5188 2.25 21.75 3.48122 21.75 5V16C21.75 16.4142 21.4142 16.75 21 16.75C20.5858 16.75 20.25 16.4142 20.25 16V5C20.25 4.30964 19.6904 3.75 19 3.75H10C9.58579 3.75 9.25 3.41421 9.25 3Z" fill="black"/>
<path fill-rule="evenodd" clip-rule="evenodd" d="M7 6.75C6.30964 6.75 5.75 7.30964 5.75 8V19C5.75 19.6904 6.30964 20.25 7 20.25H16C16.6904 20.25 17.25 19.6904 17.25 19V8C17.25 7.30964 16.6904 6.75 16 6.75H7ZM4.25 8C4.25 6.48122 5.48122 5.25 7 5.25H16C17.5188 5.25 18.75 6.48122 18.75 8V19C18.75 20.5188 17.5188 21.75 16 21.75H7C5.48122 21.75 4.25 20.5188 4.25 19V8Z" fill="black"/>
</svg>
