<svg width="24" height="24" viewBox="0 0 24 24" fill="none" xmlns="http://www.w3.org/2000/svg">
<path fill-rule="evenodd" clip-rule="evenodd" d="M5.75011 4.99574C6.16433 4.99574 6.50011 5.33153 6.50011 5.74574V5.75633C6.50011 7.29937 6.50011 8.65398 6.82343 9.63626C6.97798 10.1058 7.18889 10.4279 7.45914 10.6372C7.59825 10.7449 7.77334 10.8385 8.00003 10.9031L8.00009 5.74573C8.0001 5.33152 8.33589 4.99574 8.7501 4.99574C9.16432 4.99575 9.5001 5.33154 9.50009 5.74575L9.50003 10.9031C9.72671 10.8385 9.9018 10.7449 10.0409 10.6372C10.3112 10.4278 10.5221 10.1058 10.6767 9.63624C11.0001 8.65388 11.0001 7.29913 11.0001 5.75594V5.74574C11.0001 5.33152 11.3359 4.99574 11.7501 4.99574C12.1643 4.99575 12.5001 5.33154 12.5001 5.74575C12.5001 5.80324 12.5001 5.86103 12.5001 5.91908C12.5008 7.32768 12.5016 8.88986 12.1015 10.1053C11.8857 10.7607 11.5364 11.3761 10.9594 11.8231C10.5495 12.1406 10.0619 12.3442 9.50002 12.4371L9.50009 17.7457C9.5001 18.1599 9.16432 18.4957 8.7501 18.4957C8.33589 18.4957 8.0001 18.16 8.00009 17.7457L8.00002 12.4371C7.43816 12.3442 6.95052 12.1406 6.5406 11.8231C5.96361 11.3761 5.61437 10.7607 5.39863 10.1052C4.9986 8.88992 4.99937 7.32785 5.00006 5.91932C5.00009 5.86119 5.00011 5.80332 5.00011 5.74574C5.00011 5.33153 5.3359 4.99574 5.75011 4.99574Z" fill="black"/>
<path fill-rule="evenodd" clip-rule="evenodd" d="M16.6346 13.828H15.5846C15.06 13.828 14.6346 13.4027 14.6346 12.878V8.14046C14.6346 7.94726 14.6935 7.75866 14.8035 7.5998L16.4035 5.28808C16.9336 4.52222 18.1346 4.89732 18.1346 5.82874V17.6883C18.1346 18.1026 17.7989 18.4383 17.3846 18.4383C16.9704 18.4383 16.6346 18.1026 16.6346 17.6883V13.828Z" fill="black"/>
</svg>
