<svg width="24" height="24" viewBox="0 0 24 24" fill="none" xmlns="http://www.w3.org/2000/svg">
<path fill-rule="evenodd" clip-rule="evenodd" d="M19.8 6.7998L17.2 4.1998C16.5 3.4998 15.4 3.4998 14.7 4.1998L4.70001 14.2998C4.50001 14.4998 4.30001 14.8998 4.20001 15.1998L3.60001 18.3998C3.40001 19.5998 4.40001 20.6998 5.70001 20.4998L8.90001 19.8998C9.20001 19.7998 9.50001 19.6998 9.80001 19.3998L19.8 9.1998C20.5 8.5998 20.5 7.3998 19.8 6.7998ZM8.70001 18.2998L8.60001 18.3998L5.30001 18.9998C5.10001 18.9998 5.00001 18.8998 5.00001 18.6998L5.60001 15.4998C5.60001 15.4998 5.60001 15.3998 5.70001 15.3998L13 8.0998L15.9 10.9998L8.70001 18.2998ZM18.8 8.1998L17 9.8998L14.1 6.9998L15.9 5.1998C16 5.0998 16.2 5.0998 16.3 5.1998L18.9 7.7998C18.9 7.8998 18.9 8.0998 18.8 8.1998Z" fill="black"/>
</svg>
