<svg width="24" height="24" viewBox="0 0 24 24" fill="none" xmlns="http://www.w3.org/2000/svg">
<path fill-rule="evenodd" clip-rule="evenodd" d="M3.19922 12.0002C3.19922 12.4002 3.49922 12.8002 3.99922 12.8002H14.5992L13.3992 14.6002C13.1992 14.9002 13.2992 15.4002 13.5992 15.6002C13.8992 15.8002 14.3992 15.7002 14.5992 15.4002L16.5992 12.4002C16.7992 12.1002 16.7992 11.8002 16.5992 11.6002L14.5992 8.6002C14.3992 8.3002 13.8992 8.2002 13.5992 8.4002C13.2992 8.6002 13.1992 9.1002 13.3992 9.4002L14.5992 11.2002H3.99922C3.59922 11.2002 3.19922 11.6002 3.19922 12.0002ZM18.9992 2.2002H4.99922C3.99922 2.2002 3.19922 3.0002 3.19922 4.0002V6.0002C3.19922 6.4002 3.49922 6.8002 3.99922 6.8002C4.49922 6.8002 4.79922 6.4002 4.79922 6.0002V4.0002C4.79922 3.9002 4.89922 3.8002 4.99922 3.8002H18.9992C19.0992 3.8002 19.1992 3.9002 19.1992 4.0002V20.0002C19.1992 20.1002 19.0992 20.2002 18.9992 20.2002H4.99922C4.89922 20.2002 4.79922 20.1002 4.79922 20.0002V18.0002C4.79922 17.6002 4.49922 17.2002 3.99922 17.2002C3.49922 17.2002 3.19922 17.6002 3.19922 18.0002V20.0002C3.19922 21.0002 3.99922 21.8002 4.99922 21.8002H18.9992C19.9992 21.8002 20.7992 21.0002 20.7992 20.0002V4.0002C20.7992 3.0002 19.9992 2.2002 18.9992 2.2002Z" fill="black"/>
</svg>
