<svg width="24" height="24" viewBox="0 0 24 24" fill="none" xmlns="http://www.w3.org/2000/svg">
<path fill-rule="evenodd" clip-rule="evenodd" d="M16.04 10.7304L5.53 0.22043C5.24 -0.0695703 4.76 -0.0695703 4.47 0.22043C4.18 0.51043 4.18 0.99043 4.47 1.28043L6.19 3.00043H5.57C5.31 3.00043 5.08 3.00043 4.88 3.02043C4.67 3.04043 4.43 3.08043 4.2 3.19043C3.87 3.36043 3.6 3.63043 3.44 3.95043C3.32 4.18043 3.28 4.41043 3.27 4.63043C3.25 4.83043 3.25 5.07043 3.25 5.32043V6.08043C3.25 6.08043 3.25 6.11043 3.25 6.13043C3.25 6.33043 3.25 6.53043 3.3 6.74043C3.34 6.92043 3.41 7.09043 3.51 7.25043C3.62 7.43043 3.77 7.58043 3.91 7.71043C3.92 7.72043 3.93 7.73043 3.94 7.74043L9 12.8004C9.09 12.8904 9.14 12.9404 9.18 12.9804C9.2 13.0104 9.21 13.0204 9.21 13.0204C9.22 13.0404 9.23 13.0704 9.24 13.0904C9.24 13.0904 9.24 13.0904 9.24 13.1404C9.24 13.1904 9.24 13.2704 9.24 13.4004V18.1804C9.24 18.5804 9.24 18.9304 9.27 19.2104C9.3 19.5004 9.36 19.8304 9.56 20.1204C9.84 20.5104 10.26 20.7804 10.74 20.8504C11.09 20.9004 11.41 20.8104 11.68 20.7004C11.94 20.6004 12.26 20.4404 12.62 20.2604L13.45 19.8504C13.45 19.8504 13.49 19.8304 13.51 19.8204C13.77 19.6904 14.04 19.5604 14.25 19.3404C14.43 19.1604 14.57 18.9304 14.65 18.6904C14.75 18.4104 14.75 18.1004 14.75 17.8204C14.75 17.8004 14.75 17.7704 14.75 17.7504V13.4004C14.75 13.2704 14.75 13.2004 14.75 13.1404C14.75 13.0904 14.75 13.0804 14.75 13.0904C14.75 13.0604 14.77 13.0404 14.78 13.0204C14.78 13.0204 14.79 13.0104 14.81 12.9804C14.85 12.9404 14.9 12.8904 14.99 12.8004L15.49 12.3004L18.46 15.2704C18.75 15.5604 19.23 15.5604 19.52 15.2704C19.81 14.9804 19.81 14.5004 19.52 14.2104L16.03 10.7204L16.04 10.7304ZM13.94 11.7504C13.94 11.7504 13.92 11.7704 13.91 11.7804C13.77 11.9204 13.62 12.0704 13.51 12.2404C13.41 12.4004 13.34 12.5704 13.3 12.7504C13.25 12.9504 13.25 13.1604 13.25 13.3604C13.25 13.3804 13.25 13.3904 13.25 13.4104V17.7604C13.25 17.9504 13.25 18.0604 13.25 18.1404C13.25 18.1904 13.25 18.2104 13.25 18.2204C13.24 18.2504 13.22 18.2904 13.19 18.3104C13.19 18.3104 13.17 18.3304 13.13 18.3504C13.06 18.3904 12.96 18.4404 12.8 18.5204L12 18.9204C11.6 19.1204 11.35 19.2404 11.16 19.3204C11.04 19.3704 10.99 19.3804 10.97 19.3804C10.91 19.3704 10.86 19.3404 10.82 19.2904C10.82 19.2804 10.8 19.2204 10.79 19.1004C10.77 18.9004 10.77 18.6204 10.77 18.1704V13.4204C10.77 13.4204 10.77 13.3904 10.77 13.3704C10.77 13.1804 10.77 12.9704 10.72 12.7604C10.68 12.5804 10.61 12.4104 10.51 12.2504C10.4 12.0704 10.25 11.9204 10.11 11.7804C10.1 11.7704 10.09 11.7604 10.08 11.7504L5 6.69043C4.91 6.60043 4.86 6.55043 4.82 6.51043C4.8 6.48043 4.79 6.47043 4.79 6.47043C4.78 6.45043 4.77 6.42043 4.76 6.40043C4.76 6.40043 4.76 6.40043 4.76 6.35043C4.76 6.30043 4.76 6.22043 4.76 6.09043V5.35043C4.76 5.06043 4.76 4.88043 4.77 4.75043C4.77 4.67043 4.78 4.64043 4.79 4.63043C4.81 4.59043 4.85 4.55043 4.89 4.53043C4.89 4.53043 4.93 4.52043 5.01 4.51043C5.14 4.50043 5.31 4.50043 5.61 4.50043H7.51C7.57 4.50043 7.63 4.50043 7.68 4.48043L14.45 11.2504L13.95 11.7504H13.94ZM20.75 6.09043V5.33043C20.75 5.07043 20.75 4.83043 20.73 4.63043C20.71 4.42043 20.67 4.18043 20.56 3.95043C20.39 3.62043 20.13 3.35043 19.8 3.19043C19.57 3.07043 19.34 3.03043 19.12 3.02043C18.92 3.00043 18.69 3.00043 18.43 3.00043H13C12.59 3.00043 12.25 3.34043 12.25 3.75043C12.25 4.16043 12.59 4.50043 13 4.50043H18.4C18.69 4.50043 18.87 4.50043 19 4.51043C19.08 4.51043 19.11 4.52043 19.12 4.53043C19.16 4.55043 19.2 4.59043 19.22 4.63043C19.22 4.63043 19.23 4.67043 19.24 4.75043C19.25 4.88043 19.25 5.05043 19.25 5.35043V6.09043C19.25 6.22043 19.25 6.29043 19.25 6.35043C19.25 6.40043 19.25 6.41043 19.25 6.40043C19.25 6.42043 19.23 6.45043 19.22 6.47043C19.22 6.47043 19.22 6.47043 19.19 6.51043C19.15 6.55043 19.1 6.60043 19.01 6.69043L17.48 8.22043C17.19 8.51043 17.19 8.99043 17.48 9.28043C17.77 9.57043 18.25 9.57043 18.54 9.28043L20.07 7.75043C20.07 7.75043 20.09 7.73043 20.1 7.72043C20.24 7.58043 20.39 7.43043 20.5 7.25043C20.59 7.10043 20.67 6.92043 20.71 6.74043C20.76 6.54043 20.76 6.33043 20.76 6.13043C20.76 6.11043 20.76 6.10043 20.76 6.08043L20.75 6.09043Z" fill="#1D1D1D"/>
</svg>
