<svg width="24" height="24" viewBox="0 0 24 24" fill="none" xmlns="http://www.w3.org/2000/svg">
<path fill-rule="evenodd" clip-rule="evenodd" d="M18.5008 3.2002H5.50078C4.30078 3.2002 3.30078 4.2002 3.30078 5.4002V6.8002C3.30078 7.4002 3.50078 8.0002 4.00078 8.4002L9.00078 13.6002C9.10078 13.7002 9.20078 13.9002 9.20078 14.1002V19.7002C9.20078 20.6002 10.2008 21.2002 11.0008 20.8002L14.0008 19.3002C14.4008 19.1002 14.7008 18.7002 14.7008 18.2002V14.1002C14.7008 13.9002 14.8008 13.7002 14.9008 13.6002L20.0008 8.5002C20.4008 8.1002 20.7008 7.5002 20.7008 6.9002V5.5002C20.8008 4.3002 19.7008 3.2002 18.5008 3.2002ZM19.2008 6.9002C19.2008 7.1002 19.1008 7.3002 19.0008 7.4002L13.9008 12.5002C13.5008 12.9002 13.2008 13.5002 13.2008 14.1002V18.0002L10.7008 19.2002V14.0002C10.7008 13.4002 10.5008 12.8002 10.0008 12.4002L5.00078 7.4002C4.80078 7.3002 4.80078 7.1002 4.80078 6.9002V5.5002C4.80078 5.1002 5.10078 4.7002 5.60078 4.7002H18.6008C19.0008 4.7002 19.4008 5.0002 19.4008 5.5002V6.9002H19.2008Z" fill="black"/>
</svg>
