<svg width="24" height="24" viewBox="0 0 24 24" fill="none" xmlns="http://www.w3.org/2000/svg">
<path fill-rule="evenodd" clip-rule="evenodd" d="M19.6992 5.19996C19.0992 4.89996 18.3992 4.79996 17.7992 4.99996C16.8992 5.29996 15.8992 5.19996 14.8992 4.89996C13.9992 4.59996 13.1992 4.29996 12.3992 3.79996C12.0992 3.69996 11.7992 3.59996 11.4992 3.39996C10.2992 2.89996 9.09922 2.39996 7.79922 2.29996C6.49922 2.19996 5.09922 2.59996 3.79922 3.69996C3.39922 3.99996 3.19922 4.49996 3.19922 4.89996V21C3.19922 21.4 3.49922 21.8 3.99922 21.8C4.49922 21.8 4.79922 21.5 4.79922 21V15.8C5.89922 14.9 6.89922 14.6 7.89922 14.7C9.09922 14.8 10.1992 15.4 11.5992 16C11.6992 16 11.6992 16.1 11.7992 16.1C12.9992 16.7 14.3992 17.4 15.6992 17.6C17.1992 17.8 18.6992 17.6 20.1992 16.3C20.5992 16 20.7992 15.5 20.7992 15V6.89996C20.7992 6.09996 20.1992 5.49996 19.6992 5.19996ZM19.1992 15.1C19.1992 15.2 19.1992 15.2 19.0992 15.2C17.9992 16.2 16.8992 16.3 15.7992 16.2C14.6992 16 13.4992 15.4 12.1992 14.8C12.1992 14.8 12.0992 14.8 12.0992 14.7C10.7992 14.1 9.39922 13.4 7.89922 13.2C6.79922 13.1 5.69922 13.3 4.59922 13.9V4.89996C4.59922 4.79996 4.59922 4.79996 4.69922 4.79996C5.69922 3.89996 6.59922 3.69996 7.59922 3.79996C8.59922 3.89996 9.59922 4.29996 10.7992 4.79996C11.0992 4.89996 11.3992 4.99996 11.5992 5.19996C12.4992 5.59996 13.3992 6.09996 14.2992 6.39996C15.4992 6.79996 16.7992 6.99996 18.1992 6.49996C18.3992 6.39996 18.6992 6.49996 18.8992 6.59996C19.0992 6.69996 19.1992 6.79996 19.1992 6.89996V15.1Z" fill="black"/>
</svg>
