<svg width="24" height="24" viewBox="0 0 24 24" fill="none" xmlns="http://www.w3.org/2000/svg">
<path fill-rule="evenodd" clip-rule="evenodd" d="M18.9992 6.2002H16.4992C16.6992 5.80019 16.7992 5.4002 16.7992 5.0002C16.7992 3.5002 15.5992 2.2002 13.9992 2.2002C13.1992 2.2002 12.4992 2.5002 11.9992 3.1002C11.4992 2.6002 10.7992 2.2002 9.99922 2.2002C8.49922 2.2002 7.19922 3.5002 7.19922 5.0002C7.19922 5.5002 7.29922 5.9002 7.49922 6.2002H4.99922C3.49922 6.2002 2.19922 7.5002 2.19922 9.0002V11.0002C2.19922 11.7002 2.59922 12.3002 3.19922 12.6002V19.0002C3.19922 20.5002 4.39922 21.8002 5.99922 21.8002H17.9992C19.4992 21.8002 20.7992 20.6002 20.7992 19.0002V12.6002C21.3992 12.3002 21.7992 11.7002 21.7992 11.0002V9.0002C21.7992 7.5002 20.4992 6.2002 18.9992 6.2002ZM11.1992 20.2002H5.99922C5.29922 20.2002 4.79922 19.6002 4.79922 19.0002V12.8002H11.2992V20.2002H11.1992ZM11.1992 11.2002H3.99922C3.89922 11.2002 3.79922 11.1002 3.79922 11.0002V9.0002C3.79922 8.3002 4.39922 7.8002 4.99922 7.8002H9.99922C10.1992 7.8002 10.3992 7.8002 10.6992 7.8002C10.8992 7.8002 10.9992 7.8002 11.1992 7.8002C11.1992 7.8002 11.1992 7.8002 11.2992 7.8002V11.2002H11.1992ZM11.1992 6.2002H9.99922C9.29922 6.2002 8.79922 5.7002 8.79922 5.0002C8.79922 4.3002 9.29922 3.8002 9.99922 3.8002C10.6992 3.8002 11.1992 4.3002 11.1992 5.0002V6.2002ZM12.7992 5.0002C12.7992 4.3002 13.3992 3.8002 13.9992 3.8002C14.5992 3.8002 15.1992 4.4002 15.1992 5.0002C15.1992 5.6002 14.6992 6.2002 13.9992 6.2002H12.7992V5.0002ZM19.1992 19.0002C19.1992 19.7002 18.5992 20.2002 17.9992 20.2002H12.7992V12.7002H19.2992V19.0002H19.1992ZM20.1992 11.0002C20.1992 11.1002 20.0992 11.2002 19.9992 11.2002H12.7992V7.8002C12.7992 7.8002 12.7992 7.8002 12.8992 7.8002C13.0992 7.8002 13.2992 7.8002 13.3992 7.8002C13.6992 7.8002 13.8992 7.8002 14.0992 7.8002H19.0992C19.7992 7.8002 20.2992 8.4002 20.2992 9.0002V11.0002H20.1992Z" fill="black"/>
</svg>
