<svg width="24" height="24" viewBox="0 0 24 24" fill="none" xmlns="http://www.w3.org/2000/svg">
<path fill-rule="evenodd" clip-rule="evenodd" d="M21.9095 18.3901L20.4695 7.39014C20.3843 6.7291 20.0612 6.12176 19.5605 5.68183C19.0598 5.2419 18.416 4.99954 17.7495 5.00014H16.3695C16.2288 4.561 16.034 4.14109 15.7895 3.75014C15.4393 3.19179 14.9479 2.73587 14.3649 2.42856C13.7819 2.12125 13.128 1.97345 12.4695 2.00014C11.811 1.97345 11.1571 2.12125 10.5741 2.42856C9.99106 2.73587 9.4996 3.19179 9.14947 3.75014C8.90496 4.14109 8.71013 4.561 8.56947 5.00014H7.21947C6.549 4.99652 5.90014 5.23708 5.39407 5.6769C4.88801 6.11672 4.55935 6.72571 4.46947 7.39014L3.00947 18.3901C2.9566 18.7781 2.98748 19.1728 3.10002 19.5478C3.21257 19.9228 3.40416 20.2693 3.6619 20.564C3.91965 20.8587 4.23755 21.0947 4.5942 21.2562C4.95085 21.4177 5.33797 21.5009 5.72947 21.5001H19.1795C19.5713 21.5007 19.9588 21.4174 20.3158 21.256C20.6729 21.0946 20.9913 20.8588 21.2498 20.5643C21.5083 20.2698 21.7009 19.9235 21.8147 19.5485C21.9285 19.1736 21.9608 18.7786 21.9095 18.3901ZM10.4095 4.53014C10.6311 4.19356 10.9395 3.92301 11.302 3.74701C11.6646 3.57102 12.0679 3.49609 12.4695 3.53014C12.871 3.49609 13.2744 3.57102 13.6369 3.74701C13.9995 3.92301 14.3078 4.19356 14.5295 4.53014C14.6231 4.67945 14.7034 4.83673 14.7695 5.00014H10.1695C10.2355 4.83673 10.3158 4.67945 10.4095 4.53014ZM19.1795 20.0001H5.74947C5.56797 20.0045 5.38767 19.9696 5.22091 19.8978C5.05416 19.826 4.90489 19.719 4.78333 19.5841C4.66177 19.4493 4.57079 19.2897 4.51662 19.1165C4.46245 18.9432 4.44637 18.7602 4.46947 18.5801L5.93947 7.58014C5.97922 7.2727 6.13267 6.99131 6.3696 6.7914C6.60652 6.59149 6.90973 6.48758 7.21947 6.50014H8.27947C8.27947 6.90014 8.21947 7.32014 8.21947 7.75014C8.21947 7.94905 8.29849 8.13982 8.43914 8.28047C8.57979 8.42112 8.77056 8.50014 8.96947 8.50014C9.16838 8.50014 9.35915 8.42112 9.4998 8.28047C9.64045 8.13982 9.71947 7.94905 9.71947 7.75014C9.71586 7.3324 9.73925 6.91486 9.78947 6.50014H15.1495C15.1997 6.91486 15.2231 7.3324 15.2195 7.75014C15.2195 7.94905 15.2985 8.13982 15.4391 8.28047C15.5798 8.42112 15.7706 8.50014 15.9695 8.50014C16.1684 8.50014 16.3591 8.42112 16.4998 8.28047C16.6405 8.13982 16.7195 7.94905 16.7195 7.75014C16.7195 7.32014 16.7195 6.90014 16.6595 6.50014H17.7195C18.0212 6.50183 18.3124 6.61178 18.5399 6.80998C18.7675 7.00817 18.9164 7.28146 18.9595 7.58014L20.4195 18.5801C20.4438 18.7571 20.4298 18.9373 20.3786 19.1084C20.3274 19.2796 20.2401 19.4378 20.1226 19.5723C20.0051 19.7069 19.8601 19.8147 19.6974 19.8885C19.5347 19.9623 19.3581 20.0004 19.1795 20.0001Z" fill="black"/>
</svg>
