<svg width="24" height="24" viewBox="0 0 24 24" fill="none" xmlns="http://www.w3.org/2000/svg">
<path fill-rule="evenodd" clip-rule="evenodd" d="M17.65 3.37746C15.7 2.59746 13.42 2.99746 11.75 4.84746C10.08 2.99746 7.8 2.59746 5.85 3.37746C3.67 4.24746 2 6.53746 2 9.57746C2 11.1575 2.64 12.6775 3.53 14.0275C4.42 15.3875 5.59 16.6375 6.74 17.6975C7.89 18.7575 9.04 19.6375 9.91 20.2475C10.34 20.5575 10.7 20.7975 10.95 20.9675C11.08 21.0475 11.18 21.1175 11.25 21.1575L11.75 21.4675L12.25 21.1575C12.32 21.1175 12.42 21.0475 12.55 20.9675C12.8 20.7975 13.16 20.5575 13.59 20.2475C14.45 19.6375 15.6 18.7575 16.76 17.6975C17.91 16.6375 19.08 15.3875 19.97 14.0275C20.86 12.6775 21.5 11.1575 21.5 9.57746C21.5 6.54746 19.83 4.25746 17.65 3.37746ZM18.71 13.2075C17.91 14.4275 16.84 15.5775 15.74 16.5875C14.64 17.5875 13.54 18.4275 12.72 19.0175C12.32 19.2975 11.99 19.5275 11.75 19.6875C11.51 19.5275 11.18 19.3075 10.78 19.0175C9.95 18.4275 8.85 17.5875 7.76 16.5875C6.66 15.5775 5.58 14.4275 4.79 13.2075C3.99 11.9875 3.51 10.7575 3.51 9.57746C3.51 7.10746 4.84 5.39746 6.41 4.77746C7.95 4.15746 9.82 4.53746 11.13 6.49746L11.75 7.43746L12.37 6.49746C13.68 4.53746 15.55 4.16746 17.09 4.77746C18.66 5.40746 19.99 7.11746 19.99 9.57746C19.99 10.7475 19.51 11.9775 18.71 13.2075Z" fill="black"/>
</svg>
