<svg width="24" height="24" viewBox="0 0 24 24" fill="none" xmlns="http://www.w3.org/2000/svg">
<path fill-rule="evenodd" clip-rule="evenodd" d="M9.53 4.16047C10.94 2.92047 13.05 2.92047 14.47 4.16047L19.47 8.54047C20.28 9.25047 20.75 10.2805 20.75 11.3605V19.0005C20.75 20.5205 19.52 21.7505 18 21.7505H15C14.03 21.7505 13.25 20.9705 13.25 20.0005V16.0005C13.25 15.3105 12.69 14.7505 12 14.7505C11.31 14.7505 10.75 15.3105 10.75 16.0005V20.0005C10.75 20.9705 9.97 21.7505 9 21.7505H5C4.03 21.7505 3.25 20.9705 3.25 20.0005V11.3605C3.25 10.2805 3.72 9.25047 4.53 8.54047L9.53 4.16047ZM13.48 5.29047C12.63 4.55047 11.37 4.55047 10.52 5.29047L5.52 9.67047C5.03 10.1005 4.75 10.7105 4.75 11.3605V20.0005C4.75 20.1405 4.86 20.2505 5 20.2505H9C9.14 20.2505 9.25 20.1405 9.25 20.0005V16.0005C9.25 14.4805 10.48 13.2505 12 13.2505C13.52 13.2505 14.75 14.4805 14.75 16.0005V20.0005C14.75 20.1405 14.86 20.2505 15 20.2505H18C18.69 20.2505 19.25 19.6905 19.25 19.0005V11.3605C19.25 10.7105 18.97 10.0905 18.48 9.67047L13.48 5.29047Z" fill="black"/>
</svg>
