<svg width="24" height="24" viewBox="0 0 24 24" fill="none" xmlns="http://www.w3.org/2000/svg">
<path fill-rule="evenodd" clip-rule="evenodd" d="M12 3.75C7.44365 3.75 3.75 7.44365 3.75 12C3.75 16.5563 7.44365 20.25 12 20.25C16.5563 20.25 20.25 16.5563 20.25 12C20.25 7.44365 16.5563 3.75 12 3.75ZM2.25 12C2.25 6.61522 6.61522 2.25 12 2.25C17.3848 2.25 21.75 6.61522 21.75 12C21.75 17.3848 17.3848 21.75 12 21.75C6.61522 21.75 2.25 17.3848 2.25 12Z" fill="#1D1D1D"/>
<path fill-rule="evenodd" clip-rule="evenodd" d="M9.25 11C9.25 10.5858 9.58579 10.25 10 10.25H11.9997C12.4139 10.25 12.7497 10.5858 12.7497 11V17C12.7497 17.4142 12.4139 17.75 11.9997 17.75C11.5854 17.75 11.2497 17.4142 11.2497 17V11.75H10C9.58579 11.75 9.25 11.4142 9.25 11Z" fill="black"/>
<path fill-rule="evenodd" clip-rule="evenodd" d="M12 6.25C12.4142 6.25 12.75 6.58579 12.75 7V8C12.75 8.41421 12.4142 8.75 12 8.75C11.5858 8.75 11.25 8.41421 11.25 8V7C11.25 6.58579 11.5858 6.25 12 6.25Z" fill="black"/>
</svg>
