<svg width="24" height="24" viewBox="0 0 24 24" fill="none" xmlns="http://www.w3.org/2000/svg">
<path fill-rule="evenodd" clip-rule="evenodd" d="M14.4932 8.35585L8.34474 14.5043C8.02971 14.8193 8.02971 15.3408 8.34474 15.6558C8.65977 15.9708 9.18119 15.9708 9.49622 15.6558L15.6447 9.50733C15.9597 9.1923 15.9597 8.67087 15.6447 8.35585C15.3296 8.04082 14.8082 8.04082 14.4932 8.35585ZM12.1902 16.8073L10.6586 18.339C9.27896 19.7186 7.04118 19.7186 5.66158 18.339C4.28197 16.9593 4.28197 14.7216 5.66158 13.342L7.19326 11.8103C7.50829 11.4953 7.50829 10.9738 7.19326 10.6588C6.87823 10.3438 6.35681 10.3438 6.04178 10.6588L4.5101 12.1905C2.50044 14.2001 2.48958 17.4699 4.5101 19.4904C6.51975 21.5001 9.78952 21.5001 11.81 19.4904L13.3417 17.9587C13.6567 17.6437 13.6567 17.1223 13.3417 16.8073C13.0267 16.4922 12.5053 16.4922 12.1902 16.8073ZM19.4902 4.51034C17.4805 2.50069 14.2108 2.48982 12.1902 4.51034L10.6586 6.04203C10.3435 6.35705 10.3435 6.87848 10.6586 7.1935C10.9736 7.50853 11.495 7.50853 11.81 7.1935L13.3417 5.66182C14.7213 4.28222 16.9591 4.28222 18.3387 5.66182C19.7183 7.04142 19.7183 9.2792 18.3387 10.6588L16.807 12.1905C16.492 12.5055 16.492 13.0269 16.807 13.342C17.122 13.657 17.6435 13.657 17.9585 13.342L19.4902 11.8103C21.5107 9.78976 21.4998 6.53086 19.4902 4.51034Z" fill="#1D1D1D"/>
</svg>
