<svg width="24" height="24" viewBox="0 0 24 24" fill="none" xmlns="http://www.w3.org/2000/svg">
<path d="M11 21.9996V20.9996C8.91672 20.7663 7.12905 19.9036 5.63705 18.4116C4.14505 16.9196 3.28272 15.1323 3.05005 13.0496H2.05005C1.76672 13.0496 1.52938 12.9536 1.33805 12.7616C1.14672 12.5696 1.05072 12.3323 1.05005 12.0496C1.05005 11.7663 1.14605 11.5289 1.33805 11.3376C1.53005 11.1463 1.76738 11.0503 2.05005 11.0496H3.05005C3.28338 8.96628 4.14605 7.17861 5.63805 5.68661C7.13005 4.19461 8.91738 3.33228 11 3.09961V2.09961C11 1.81628 11.096 1.57894 11.288 1.38761C11.48 1.19628 11.7174 1.10028 12 1.09961C12.2834 1.09961 12.521 1.19561 12.713 1.38761C12.905 1.57961 13.0007 1.81694 13 2.09961V3.09961C15.0834 3.33294 16.8711 4.19561 18.3631 5.68761C19.8551 7.17961 20.7174 8.96694 20.9501 11.0496H21.9501C22.2334 11.0496 22.471 11.1456 22.663 11.3376C22.855 11.5296 22.9507 11.7669 22.9501 12.0496C22.9501 12.3329 22.8544 12.5706 22.663 12.7626C22.4717 12.9546 22.2341 13.0503 21.9501 13.0496H20.9501C20.7167 15.1329 19.8544 16.9206 18.3631 18.4126C16.8717 19.9046 15.084 20.7669 13 20.9996V21.9996C13 22.2829 12.904 22.5206 12.712 22.7126C12.52 22.9046 12.2827 23.0003 12 22.9996C11.7167 22.9996 11.4794 22.9036 11.288 22.7116C11.0967 22.5196 11.0007 22.2823 11 21.9996ZM12 19.0496C13.9334 19.0496 15.5834 18.3663 16.95 16.9996C18.3167 15.6329 19 13.9829 19 12.0496C19 10.1163 18.3167 8.46628 16.95 7.09961C15.5834 5.73294 13.9334 5.04961 12 5.04961C10.0667 5.04961 8.41672 5.73294 7.05005 7.09961C5.68338 8.46628 5.00005 10.1163 5.00005 12.0496C5.00005 13.9829 5.68338 15.6329 7.05005 16.9996C8.41672 18.3663 10.0667 19.0496 12 19.0496Z" fill="black"/>
</svg>
