<svg width="24" height="24" viewBox="0 0 24 24" fill="none" xmlns="http://www.w3.org/2000/svg">
<path fill-rule="evenodd" clip-rule="evenodd" d="M21.3967 2.36348C21.6164 2.50042 21.75 2.74105 21.75 3V18C21.75 18.2841 21.5895 18.5438 21.3354 18.6708L15.3354 21.6708C15.1243 21.7764 14.8757 21.7764 14.6646 21.6708L9 18.8385L3.33541 21.6708C3.10292 21.7871 2.82681 21.7746 2.6057 21.638C2.38459 21.5013 2.25 21.2599 2.25 21V6C2.25 5.71592 2.4105 5.45622 2.66459 5.32918L8.66459 2.32918C8.87754 2.22271 9.12838 2.22366 9.34051 2.33176L14.8937 5.16145L20.6696 2.32672C20.902 2.21263 21.1769 2.22653 21.3967 2.36348ZM14.1408 6.46134L9.75 4.22393V17.5365L14.2408 19.7819L14.1408 6.46134ZM15.7409 19.791L20.25 17.5365V4.20355L15.6409 6.46564L15.7409 19.791ZM8.25 17.5365V4.21353L3.75 6.46353V19.7865L8.25 17.5365Z" fill="black"/>
</svg>
