<svg width="24" height="24" viewBox="0 0 24 24" fill="none" xmlns="http://www.w3.org/2000/svg">
<path fill-rule="evenodd" clip-rule="evenodd" d="M12 6.00047C10.34 6.00047 9 7.34047 9 9.00047C9 10.6605 10.34 12.0005 12 12.0005C13.66 12.0005 15 10.6605 15 9.00047C15 7.34047 13.66 6.00047 12 6.00047ZM12 10.5005C11.17 10.5005 10.5 9.83047 10.5 9.00047C10.5 8.17047 11.17 7.50047 12 7.50047C12.83 7.50047 13.5 8.17047 13.5 9.00047C13.5 9.83047 12.83 10.5005 12 10.5005ZM12 2.25047C7.72 2.25047 4.25 5.72047 4.25 10.0005C4.25 11.0405 4.56 12.2205 5.02 13.4005C5.05 13.4805 5.08 13.5605 5.11 13.6305C5.57 14.7405 6.17 15.8705 6.83 16.9105C6.92 17.0605 7.02 17.2105 7.12 17.3505C7.89 18.5105 8.74 19.5705 9.54 20.3505C9.94 20.7405 10.34 21.0705 10.73 21.3105C11.1 21.5405 11.54 21.7405 12 21.7405C12.46 21.7405 12.89 21.5505 13.27 21.3105C13.61 21.1005 13.96 20.8205 14.31 20.4905C14.36 20.4405 14.41 20.4005 14.46 20.3505C15.26 19.5705 16.1 18.5205 16.88 17.3505C17.56 16.3305 18.19 15.2105 18.68 14.1005C18.75 13.9405 18.82 13.7805 18.88 13.6205C19.4 12.3705 19.75 11.0905 19.75 9.98047C19.75 5.70047 16.28 2.23047 12 2.23047V2.25047ZM17.58 12.8505C17.55 12.9205 17.52 13.0005 17.49 13.0705C17.07 14.0905 16.51 15.1405 15.89 16.1205C15.8 16.2605 15.71 16.4005 15.62 16.5405C14.9 17.6205 14.14 18.5805 13.44 19.2605C13.43 19.2705 13.42 19.2805 13.41 19.2905C13.06 19.6305 12.74 19.8905 12.48 20.0505C12.46 20.0505 12.45 20.0705 12.43 20.0805C12.32 20.1405 12.23 20.1905 12.15 20.2205C12.15 20.2205 12.14 20.2205 12.13 20.2205C12.05 20.2505 12.01 20.2505 11.99 20.2505C11.97 20.2505 11.92 20.2505 11.84 20.2105C11.76 20.1805 11.65 20.1305 11.51 20.0405C11.26 19.8905 10.97 19.6505 10.64 19.3405C10.62 19.3205 10.6 19.3005 10.57 19.2805C9.91 18.6405 9.19 17.7505 8.5 16.7305C8.45 16.6605 8.41 16.5905 8.36 16.5205C7.72 15.5605 7.14 14.5105 6.68 13.4905C6.61 13.3405 6.55 13.2005 6.49 13.0505C6.01 11.8805 5.73 10.8105 5.73 9.99047C5.73 6.54047 8.53 3.74047 11.98 3.74047C15.43 3.74047 18.23 6.54047 18.23 9.99047C18.23 10.7605 17.99 11.7505 17.56 12.8405L17.58 12.8505Z" fill="#1D1D1D"/>
</svg>
