<svg width="24" height="24" viewBox="0 0 24 24" fill="none" xmlns="http://www.w3.org/2000/svg">
<path fill-rule="evenodd" clip-rule="evenodd" d="M21.24 12.4499L19.77 11.8199L21.27 11.0799C21.48 10.9799 21.61 10.7599 21.61 10.5299C21.61 10.2999 21.46 10.0899 21.25 9.9899L19.7 9.3299L21.28 8.5399C21.49 8.4399 21.62 8.2199 21.61 7.9899C21.61 7.7599 21.46 7.5499 21.25 7.4599L14.25 4.4599C14.08 4.3899 13.89 4.3999 13.73 4.4799L2.70998 10.4699C2.50998 10.5799 2.38998 10.7999 2.39998 11.0199C2.40998 11.2399 2.54998 11.4499 2.75998 11.5399L4.22998 12.1699L2.69998 12.9999C2.49998 13.1099 2.37998 13.3299 2.38998 13.5599C2.39998 13.7899 2.53998 13.9899 2.74998 14.0799L4.13998 14.6699L2.69998 15.4499C2.49998 15.5599 2.37998 15.7799 2.38998 16.0099C2.39998 16.2399 2.53998 16.4399 2.74998 16.5299L9.74998 19.5299C9.91998 19.5999 10.12 19.5899 10.28 19.4999L14.27 17.2499L17.26 15.6999L21.27 13.5099C21.47 13.3999 21.59 13.1799 21.58 12.9499C21.57 12.7199 21.43 12.5199 21.22 12.4299L21.24 12.4499ZM18.34 10.0499L19.57 10.5799L17.61 11.5399V10.3699L18.3 10.0199C18.3 10.0199 18.32 10.0399 18.34 10.0499ZM14.04 5.6599L19.58 8.0399L16.99 9.3299L11.75 6.9099L14.04 5.6599ZM7.11998 9.4399C7.11998 9.4399 7.20998 9.5199 7.25998 9.5399L12.66 11.9999L9.98998 13.3399L4.37998 10.9399L7.11998 9.4499V9.4399ZM9.77998 14.5499C9.93998 14.6199 10.13 14.6099 10.28 14.5399L13.28 13.0399C13.33 13.0099 13.37 12.9699 13.41 12.9399V14.1399L9.98998 15.8899L4.37998 13.4899L5.56998 12.8399C5.56998 12.8399 5.60998 12.7999 5.62998 12.7899L9.76998 14.5599L9.77998 14.5499ZM9.97998 18.3299L4.38998 15.9299L5.56998 15.2799L9.77998 17.0799C9.93998 17.1499 10.13 17.1399 10.29 17.0599L13.42 15.4599V16.3699L9.97998 18.3099V18.3299ZM16.42 14.8199L14.62 15.7599V11.9699C14.62 11.7299 14.48 11.5199 14.27 11.4199L8.40998 8.7499L10.45 7.6299L16.42 10.3799V14.8099V14.8199ZM17.62 14.1699V12.8699L18.36 12.5099L19.65 13.0599L17.62 14.1699Z" fill="black"/>
</svg>
