<svg width="24" height="24" viewBox="0 0 24 24" fill="none" xmlns="http://www.w3.org/2000/svg">
<path fill-rule="evenodd" clip-rule="evenodd" d="M5.25 12C5.25 11.0335 6.0335 10.25 7 10.25C7.9665 10.25 8.75 11.0335 8.75 12C8.75 12.9665 7.9665 13.75 7 13.75C6.0335 13.75 5.25 12.9665 5.25 12Z" fill="#1D1D1D"/>
<path fill-rule="evenodd" clip-rule="evenodd" d="M10.25 12C10.25 11.0335 11.0335 10.25 12 10.25C12.9665 10.25 13.75 11.0335 13.75 12C13.75 12.9665 12.9665 13.75 12 13.75C11.0335 13.75 10.25 12.9665 10.25 12Z" fill="#1D1D1D"/>
<path fill-rule="evenodd" clip-rule="evenodd" d="M15.25 12C15.25 11.0335 16.0335 10.25 17 10.25C17.9665 10.25 18.75 11.0335 18.75 12C18.75 12.9665 17.9665 13.75 17 13.75C16.0335 13.75 15.25 12.9665 15.25 12Z" fill="#1D1D1D"/>
</svg>
