<svg width="24" height="24" viewBox="0 0 24 24" fill="none" xmlns="http://www.w3.org/2000/svg">
<path fill-rule="evenodd" clip-rule="evenodd" d="M12 5.25C12.9665 5.25 13.75 6.0335 13.75 7C13.75 7.9665 12.9665 8.75 12 8.75C11.0335 8.75 10.25 7.9665 10.25 7C10.25 6.0335 11.0335 5.25 12 5.25Z" fill="#1D1D1D"/>
<path fill-rule="evenodd" clip-rule="evenodd" d="M12 10.25C12.9665 10.25 13.75 11.0335 13.75 12C13.75 12.9665 12.9665 13.75 12 13.75C11.0335 13.75 10.25 12.9665 10.25 12C10.25 11.0335 11.0335 10.25 12 10.25Z" fill="#1D1D1D"/>
<path fill-rule="evenodd" clip-rule="evenodd" d="M12 15.25C12.9665 15.25 13.75 16.0335 13.75 17C13.75 17.9665 12.9665 18.75 12 18.75C11.0335 18.75 10.25 17.9665 10.25 17C10.25 16.0335 11.0335 15.25 12 15.25Z" fill="#1D1D1D"/>
</svg>
