<svg width="24" height="24" viewBox="0 0 24 24" fill="none" xmlns="http://www.w3.org/2000/svg">
<path fill-rule="evenodd" clip-rule="evenodd" d="M11.9992 5.2002C10.7992 5.2002 9.69922 6.2002 9.69922 7.4002C9.69922 8.6002 10.6992 9.6002 11.9992 9.6002C13.1992 9.6002 14.1992 8.6002 14.1992 7.4002C14.1992 6.2002 13.1992 5.2002 11.9992 5.2002ZM11.9992 8.2002C11.5992 8.2002 11.1992 7.9002 11.1992 7.4002C11.1992 6.9002 11.5992 6.8002 11.9992 6.8002C12.3992 6.8002 12.7992 7.1002 12.7992 7.6002C12.7992 8.1002 12.3992 8.2002 11.9992 8.2002ZM21.2992 12.0002C21.2992 11.8002 21.1992 11.6002 20.9992 11.4002L17.6992 8.6002C17.6992 8.4002 17.6992 8.2002 17.6992 8.0002C17.6992 4.8002 15.0992 2.2002 11.8992 2.2002C8.79922 2.2002 6.29922 4.8002 6.29922 8.0002C6.29922 8.2002 6.29922 8.4002 6.29922 8.6002L2.99922 11.4002C2.89922 11.6002 2.79922 11.8002 2.69922 12.0002L2.19922 20.7002C2.19922 21.4002 2.99922 21.9002 3.59922 21.4002L6.99922 18.9002L11.9992 21.9002L16.9992 18.9002L20.3992 21.5002C20.9992 21.9002 21.7992 21.5002 21.7992 20.8002L21.2992 12.0002ZM6.29922 17.6002L3.89922 19.4002L4.29922 12.3002L6.29922 10.6002V17.6002ZM11.2992 19.7002L7.79922 17.6002V12.1002C7.99922 12.5002 8.29922 12.9002 8.59922 13.2002C9.19922 14.0002 9.79922 14.7002 10.3992 15.2002C10.6992 15.5002 10.8992 15.7002 11.1992 15.9002C11.1992 15.9002 11.2992 16.0002 11.3992 16.0002V19.7002H11.2992ZM16.2992 17.6002L12.7992 19.7002V16.0002C12.8992 16.0002 12.8992 15.9002 12.9992 15.9002C13.2992 15.7002 13.4992 15.5002 13.7992 15.2002C14.3992 14.7002 14.9992 14.0002 15.5992 13.2002C15.8992 12.8002 16.0992 12.5002 16.3992 12.1002V17.6002H16.2992ZM15.6992 10.0002C15.2992 10.8002 14.7992 11.6002 14.2992 12.3002C13.7992 13.0002 13.1992 13.7002 12.6992 14.1002C12.4992 14.3002 12.2992 14.5002 12.0992 14.6002C12.0992 14.6002 11.9992 14.6002 11.9992 14.7002C11.9992 14.7002 11.8992 14.7002 11.8992 14.6002C11.6992 14.5002 11.4992 14.3002 11.2992 14.1002C10.7992 13.6002 10.2992 13.0002 9.69922 12.3002C9.19922 11.6002 8.69922 10.8002 8.29922 10.0002C7.89922 9.2002 7.79922 8.5002 7.79922 8.0002C7.79922 5.7002 9.69922 3.8002 12.0992 3.8002C14.3992 3.8002 16.2992 5.7002 16.2992 8.0002C16.2992 8.5002 16.0992 9.2002 15.6992 10.0002ZM17.7992 17.6002V10.6002L19.7992 12.3002L20.1992 19.4002L17.7992 17.6002Z" fill="#1D1D1D"/>
</svg>
