<svg width="24" height="24" viewBox="0 0 24 24" fill="none" xmlns="http://www.w3.org/2000/svg">
<path fill-rule="evenodd" clip-rule="evenodd" d="M20.29 8.82L18.95 6.38C18.87 6.23 18.8 6.06 18.75 5.89L18.51 5.01C18.06 3.38 16.58 2.25 14.89 2.25H9.11C7.42 2.25 5.94 3.38 5.49 5.01L5.25 5.89C5.2 6.06 5.14 6.22 5.05 6.38L3.71 8.82C3.41 9.37 3.25 9.99 3.25 10.62V17.99C3.25 20.06 4.93 21.74 7 21.74H17C19.07 21.74 20.75 20.06 20.75 17.99V10.62C20.75 9.99 20.59 9.37 20.29 8.82ZM19.25 18C19.25 19.24 18.24 20.25 17 20.25H7C5.76 20.25 4.75 19.24 4.75 18V10.63C4.75 10.25 4.85 9.88 5.03 9.55L6.37 7.11C6.51 6.85 6.62 6.58 6.7 6.3L6.94 5.42C7.21 4.44 8.1 3.77 9.11 3.77H14.89C15.9 3.77 16.79 4.45 17.06 5.42L17.3 6.3C17.38 6.58 17.49 6.86 17.63 7.11L18.97 9.55C19.15 9.88 19.25 10.25 19.25 10.63V18ZM14.5 6.25H9.5C8.26 6.25 7.25 7.26 7.25 8.5C7.25 9.74 8.26 10.75 9.5 10.75H14.5C15.74 10.75 16.75 9.74 16.75 8.5C16.75 7.26 15.74 6.25 14.5 6.25ZM14.5 9.25H9.5C9.09 9.25 8.75 8.91 8.75 8.5C8.75 8.09 9.09 7.75 9.5 7.75H14.5C14.91 7.75 15.25 8.09 15.25 8.5C15.25 8.91 14.91 9.25 14.5 9.25Z" fill="#1D1D1D"/>
</svg>
