<svg width="24" height="24" viewBox="0 0 24 24" fill="none" xmlns="http://www.w3.org/2000/svg">
<path fill-rule="evenodd" clip-rule="evenodd" d="M18.8991 2.89961L4.09907 7.89961C2.59907 8.39961 2.39907 10.3996 3.79907 11.0996L9.79907 14.0996L9.89907 14.1996L12.8991 20.1996C13.5991 21.5996 15.5991 21.3996 16.0991 19.9996L20.9991 5.19961C21.4991 3.79961 20.1991 2.49961 18.8991 2.89961ZM19.6991 4.69961L14.7991 19.4996C14.6991 19.6996 14.3991 19.6996 14.2991 19.4996L11.2991 13.4996C11.0991 13.1996 10.8991 12.8996 10.4991 12.6996L4.49907 9.69961C4.29907 9.59961 4.29907 9.29961 4.49907 9.19961L19.2991 4.29961C19.4991 4.29961 19.6991 4.49961 19.6991 4.69961Z" fill="black"/>
</svg>
