<svg width="24" height="24" viewBox="0 0 24 24" fill="none" xmlns="http://www.w3.org/2000/svg">
<path fill-rule="evenodd" clip-rule="evenodd" d="M17.4957 14.776L15.7957 13.476C15.2957 13.076 14.5957 12.976 13.9957 13.076L12.5957 13.376C12.2957 13.476 11.9957 13.276 11.7957 12.976L10.7957 11.076C10.5957 10.776 10.5957 10.376 10.8957 10.176L11.3957 9.77595C11.8957 9.37595 12.1957 8.77595 12.1957 8.07595V5.87595C12.1957 4.87595 11.4957 3.97595 10.4957 3.67595L8.19565 3.07595C6.99565 2.77595 5.79565 3.37595 5.49565 4.67595C4.29565 9.57595 5.39565 13.376 7.49565 16.076C9.59565 18.776 12.4957 20.376 14.9957 21.176C16.1957 21.576 17.3957 20.776 17.6957 19.676L18.2957 17.276C18.5957 16.276 18.2957 15.276 17.4957 14.776ZM16.8957 16.776L16.2957 19.176C16.1957 19.576 15.7957 19.776 15.4957 19.676C13.1957 18.976 10.5957 17.476 8.69565 15.076C6.89565 12.776 5.89565 9.47595 6.89565 4.97595C6.99565 4.67595 7.39565 4.37595 7.79565 4.47595L10.0957 5.07595C10.3957 5.17595 10.5957 5.47595 10.5957 5.87595V8.07595C10.5957 8.27595 10.4957 8.47595 10.2957 8.67595L9.89565 9.07595C9.09565 9.77595 8.89565 10.976 9.39565 11.876L10.4957 13.776C10.9957 14.576 11.9957 15.076 12.8957 14.876L14.2957 14.576C14.4957 14.576 14.6957 14.576 14.8957 14.676L16.5957 15.976C16.8957 16.176 16.9957 16.476 16.8957 16.776Z" fill="black"/>
</svg>
