<svg width="24" height="24" viewBox="0 0 24 24" fill="none" xmlns="http://www.w3.org/2000/svg">
<path fill-rule="evenodd" clip-rule="evenodd" d="M21.28 20.22L15.77 14.62C16.85 13.29 17.49 11.59 17.49 9.75C17.5 5.47 14.03 2 9.75 2C5.47 2 2 5.47 2 9.75C2 14.03 5.47 17.5 9.75 17.5C11.64 17.5 13.38 16.82 14.72 15.69L20.21 21.27C20.5 21.57 20.98 21.57 21.27 21.27C21.57 20.98 21.57 20.5 21.27 20.21L21.28 20.22ZM14.21 14.12C13.07 15.28 11.49 16 9.75 16C6.3 16 3.5 13.2 3.5 9.75C3.5 6.3 6.3 3.5 9.75 3.5C13.2 3.5 16 6.3 16 9.75C16 11.45 15.32 13 14.21 14.12Z" fill="#1D1D1D"/>
</svg>
