<svg width="24" height="24" viewBox="0 0 24 24" fill="none" xmlns="http://www.w3.org/2000/svg">
<path fill-rule="evenodd" clip-rule="evenodd" d="M23 12.1984V11.6251C23 11.6251 23 11.5535 23 11.5227C23 10.929 23 10.4581 22.8567 10.0281C22.7338 9.64931 22.5291 9.30124 22.2527 9.00436C21.9456 8.66653 21.5361 8.44131 21.014 8.15466C20.9832 8.13419 20.9525 8.12395 20.9218 8.10347L20.543 7.89873C20.4816 7.86802 20.4611 7.85778 20.4509 7.84754C20.2769 7.74517 20.1336 7.60185 20.0209 7.42781C20.0107 7.40734 20.0005 7.38686 19.9698 7.33568C19.939 7.27425 19.9288 7.25378 19.9186 7.24354C19.8264 7.05927 19.7752 6.86476 19.765 6.66001C19.765 6.63954 19.765 6.6293 19.765 6.55764V6.12767C19.765 6.12767 19.765 6.05601 19.765 6.0253C19.7752 5.4213 19.7855 4.96062 19.6524 4.52041C19.5295 4.14163 19.335 3.78333 19.0689 3.48644C18.7617 3.14861 18.3625 2.91315 17.8404 2.61627C17.8097 2.5958 17.779 2.58556 17.7483 2.56508L17.2466 2.27844C17.2466 2.27844 17.1852 2.24773 17.1545 2.22725C16.6324 1.93037 16.2331 1.69491 15.7827 1.60278C15.3937 1.52088 14.9842 1.52088 14.5952 1.60278C14.155 1.70515 13.7455 1.94061 13.2438 2.24773C13.2131 2.2682 13.1824 2.28868 13.1517 2.29891L12.7934 2.5139C12.732 2.54461 12.7115 2.55485 12.7013 2.56508C12.5272 2.66746 12.3225 2.71864 12.1177 2.72888C12.0973 2.72888 12.0768 2.72888 12.0051 2.72888C11.9335 2.72888 11.913 2.72888 11.8925 2.72888C11.6878 2.72888 11.4933 2.66746 11.309 2.56508C11.2987 2.56508 11.2783 2.54461 11.2168 2.5139L10.8483 2.29891C10.8483 2.29891 10.7869 2.25797 10.7562 2.24773C10.2443 1.94061 9.83481 1.69491 9.3946 1.59254C9.00558 1.5004 8.59609 1.5004 8.20707 1.59254C7.75663 1.68468 7.34714 1.92013 6.83527 2.22725C6.80456 2.24773 6.77385 2.25797 6.74314 2.27844L6.24151 2.56508C6.24151 2.56508 6.18008 2.5958 6.14937 2.61627C5.62727 2.91315 5.22801 3.14861 4.92089 3.48644C4.65472 3.78333 4.46021 4.14163 4.33737 4.52041C4.20428 4.96062 4.21452 5.4213 4.22476 6.0253C4.22476 6.05601 4.22476 6.09696 4.22476 6.12767V6.55764V6.57811C4.22476 6.6293 4.22476 6.64978 4.22476 6.66001C4.22476 6.86476 4.17357 7.06951 4.0712 7.24354C4.0712 7.26401 4.05072 7.27425 4.02001 7.33568C3.9893 7.3971 3.97906 7.41757 3.96882 7.42781C3.85621 7.60185 3.71289 7.74517 3.53886 7.84754C3.51838 7.84754 3.50814 7.86802 3.44672 7.89873L3.07818 8.10347C3.07818 8.10347 3.01675 8.13419 2.98604 8.15466C2.46394 8.44131 2.04421 8.67676 1.73709 9.00436C1.46068 9.30124 1.25593 9.64931 1.13309 10.0281C1 10.4581 1 10.929 1 11.533C1 11.5637 1 11.6046 1 11.6456V12.2189C1 12.2189 1 12.2905 1 12.3315C1 12.9253 1 13.3962 1.14332 13.8261C1.26617 14.2049 1.47092 14.553 1.74732 14.8499C2.05444 15.1877 2.46394 15.4129 2.98604 15.6996C3.01675 15.72 3.04746 15.7303 3.07818 15.7508L3.44672 15.9555C3.51838 15.9964 3.52862 16.0067 3.54909 16.0169C3.72313 16.1193 3.86645 16.2626 3.97906 16.4367C3.97906 16.4571 3.99953 16.4674 4.04048 16.539C4.0712 16.6107 4.08143 16.6209 4.09167 16.6414C4.18381 16.8154 4.23499 17.0202 4.23499 17.2147C4.23499 17.2352 4.23499 17.2556 4.23499 17.3273V17.747C4.23499 17.747 4.23499 17.8187 4.23499 17.8494C4.22476 18.4432 4.21452 18.9141 4.3476 19.3543C4.47045 19.7331 4.66496 20.0914 4.93113 20.3883C5.23825 20.7261 5.64774 20.9615 6.15961 21.2584C6.19032 21.2789 6.22103 21.2891 6.25175 21.3096L6.75337 21.5963C6.75337 21.5963 6.8148 21.627 6.84551 21.6474C7.36761 21.9443 7.76687 22.1798 8.21731 22.2719C8.60633 22.3538 9.01582 22.3538 9.40484 22.2719C9.84504 22.1696 10.2545 21.9341 10.7562 21.627C10.7869 21.6065 10.8176 21.586 10.8483 21.5758L11.2066 21.3608C11.268 21.3301 11.2885 21.3199 11.2987 21.3096C11.4728 21.2072 11.6775 21.1561 11.8823 21.1458C11.9027 21.1458 11.9232 21.1458 11.9949 21.1458C12.0665 21.1458 12.087 21.1458 12.1075 21.1458C12.3122 21.1458 12.5067 21.2072 12.691 21.3096C12.7115 21.3096 12.7217 21.3301 12.7832 21.3608L13.1517 21.5758C13.1517 21.5758 13.2131 21.6167 13.2438 21.627C13.7557 21.9341 14.1652 22.1798 14.6054 22.2822C14.9944 22.3743 15.4039 22.3743 15.7929 22.2822C16.2434 22.19 16.6529 21.9546 17.1647 21.6474C17.1954 21.627 17.2262 21.6167 17.2569 21.5963L17.7585 21.3096C17.7585 21.3096 17.8199 21.2789 17.8506 21.2584C18.3727 20.9615 18.772 20.7261 19.0791 20.3883C19.3453 20.0914 19.5398 19.7331 19.6626 19.3543C19.7957 18.9243 19.7855 18.4534 19.7752 17.8494C19.7752 17.8187 19.7752 17.7777 19.7752 17.747V17.2966C19.7752 17.2352 19.7752 17.2147 19.7752 17.2045C19.7752 16.9997 19.8264 16.795 19.9288 16.6209C19.9288 16.6005 19.9493 16.5902 19.98 16.5288C20.0107 16.4674 20.0209 16.4571 20.0312 16.4367C20.1438 16.2626 20.2871 16.1193 20.4611 16.0169C20.4714 16.0169 20.4919 15.9964 20.5533 15.9657L20.9218 15.761C20.9218 15.761 20.9832 15.7303 21.014 15.7098C21.5361 15.4232 21.9558 15.1877 22.2629 14.8499C22.5393 14.553 22.7441 14.2049 22.8669 13.8261C23.0102 13.3859 23.0102 12.915 23.0102 12.311C23.0102 12.2803 23.0102 12.2394 23.0102 12.2086L23 12.1984ZM21.403 13.3347C21.3416 13.5088 21.2494 13.6726 21.1266 13.8057C21.0037 13.9387 20.8297 14.0411 20.1745 14.4097L19.7957 14.6246C19.7957 14.6246 19.7138 14.6758 19.6729 14.6963C19.2839 14.9318 18.9563 15.2491 18.7208 15.6279C18.7003 15.6689 18.6696 15.7098 18.6389 15.761C18.6082 15.8224 18.5877 15.8531 18.5672 15.8941C18.3523 16.2933 18.2396 16.7335 18.2294 17.184C18.2294 17.2249 18.2294 17.2659 18.2294 17.3171C18.2294 17.3171 18.2294 17.3273 18.2294 17.3375V17.7675C18.2499 18.5148 18.2396 18.7196 18.1885 18.8936C18.1373 19.0676 18.0451 19.2314 17.9223 19.3645C17.8097 19.4976 17.6356 19.6102 16.9805 19.9788L16.4788 20.2654C15.8236 20.6442 15.6394 20.7363 15.4756 20.7773C15.3015 20.8182 15.1173 20.8182 14.933 20.7773C14.759 20.7363 14.5849 20.6442 13.9297 20.2552L13.5612 20.03C13.51 19.9992 13.4691 19.9788 13.4281 19.9481C13.0391 19.7331 12.5989 19.6102 12.1484 19.5897C12.1075 19.5897 12.0563 19.5897 11.9949 19.5897H11.9744C11.913 19.5897 11.872 19.5897 11.8311 19.5897C11.3806 19.6 10.9404 19.7228 10.5514 19.9481C10.5105 19.9685 10.4695 19.9992 10.4183 20.03L10.06 20.2449C9.41508 20.634 9.24104 20.7261 9.06701 20.767C8.89297 20.808 8.7087 20.808 8.52443 20.767C8.3504 20.7363 8.17636 20.634 7.52117 20.2654L7.01954 19.9788C6.36436 19.6 6.19032 19.4976 6.07771 19.3645C5.95486 19.2314 5.86273 19.0676 5.81154 18.8936C5.76035 18.7298 5.75012 18.5251 5.77059 17.7675V17.3478C5.77059 17.2863 5.77059 17.2352 5.77059 17.184C5.77059 16.7438 5.64774 16.3036 5.443 15.9145C5.42252 15.8736 5.40205 15.8327 5.37134 15.7917C5.37134 15.7917 5.37134 15.7815 5.3611 15.7712C5.33039 15.7098 5.30991 15.6689 5.2792 15.6279C5.04374 15.2491 4.72638 14.9318 4.33737 14.6963C4.29642 14.6758 4.25547 14.6451 4.20428 14.6144L3.8255 14.3994C3.17031 14.0309 2.99628 13.9285 2.87343 13.7954C2.75058 13.6623 2.65845 13.4985 2.59702 13.3347C2.54584 13.1709 2.5356 12.9662 2.5356 12.2189V11.6456C2.5356 10.888 2.5356 10.6833 2.59702 10.5195C2.65845 10.3454 2.75058 10.1817 2.87343 10.0486C2.99628 9.91548 3.17031 9.81311 3.8255 9.44456L4.19404 9.23982C4.24523 9.20911 4.28618 9.18863 4.32713 9.16816C4.71615 8.9327 5.04374 8.61534 5.2792 8.23656C5.29967 8.19561 5.33039 8.15466 5.35086 8.11371C5.38157 8.05229 5.40205 8.01134 5.42252 7.97039C5.63751 7.57113 5.75012 7.13093 5.76035 6.68049C5.76035 6.63954 5.76035 6.59859 5.76035 6.5474V6.52693V6.09696C5.73988 5.34964 5.75012 5.14489 5.8013 4.97085C5.85249 4.79682 5.94462 4.63302 6.06747 4.49994C6.18008 4.36685 6.35412 4.25424 7.00931 3.8857L7.51094 3.59905C8.16612 3.22027 8.3504 3.12814 8.51419 3.08719C8.68823 3.04624 8.88274 3.04624 9.05677 3.08719C9.2308 3.12814 9.40484 3.22027 10.06 3.60929L10.4388 3.83451C10.4388 3.83451 10.5207 3.8857 10.5617 3.90617C10.9507 4.12116 11.3909 4.24401 11.8413 4.26448C11.8823 4.26448 11.9335 4.26448 11.9846 4.26448H12.0051C12.0665 4.26448 12.1075 4.26448 12.1484 4.26448C12.5989 4.25424 13.0391 4.13139 13.4281 3.90617C13.4691 3.8857 13.51 3.86522 13.5612 3.82428L13.9195 3.60929C14.5644 3.22027 14.7385 3.12814 14.9125 3.08719C15.0866 3.04624 15.2708 3.04624 15.4551 3.08719C15.6291 3.1179 15.8032 3.22027 16.4584 3.58882L16.96 3.87546C17.6152 4.25424 17.7892 4.35662 17.9018 4.4897C18.0247 4.62279 18.1168 4.78658 18.168 4.96062C18.2192 5.12441 18.2294 5.32916 18.2089 6.08672V6.51669C18.2089 6.51669 18.2089 6.52693 18.2089 6.53716C18.2089 6.58835 18.2089 6.6293 18.2089 6.67025C18.2089 7.12069 18.3318 7.5609 18.5468 7.96015C18.5672 8.0011 18.5877 8.04205 18.6184 8.09324C18.6491 8.1649 18.6696 8.19561 18.7003 8.23656C18.9358 8.61534 19.2634 8.9327 19.6422 9.16816C19.6831 9.18863 19.7241 9.20911 19.7752 9.23982L20.154 9.4548C20.8092 9.82334 20.9832 9.92572 21.1061 10.0588C21.2289 10.1919 21.3211 10.3557 21.3825 10.5195C21.4337 10.6833 21.4439 10.888 21.4542 11.6353V12.2086C21.4542 12.9662 21.4542 13.1709 21.3927 13.3347H21.403ZM12.0051 7.05927C9.32294 7.05927 7.14239 9.23982 7.14239 11.922C7.14239 14.6042 9.32294 16.7847 12.0051 16.7847C14.6873 16.7847 16.8678 14.6042 16.8678 11.922C16.8678 9.23982 14.6873 7.05927 12.0051 7.05927ZM12.0051 15.2491C10.1726 15.2491 8.67799 13.7545 8.67799 11.922C8.67799 10.0895 10.1726 8.59487 12.0051 8.59487C13.8376 8.59487 15.3322 10.0895 15.3322 11.922C15.3322 13.7545 13.8376 15.2491 12.0051 15.2491Z" fill="#1D1D1D"/>
</svg>
