<svg width="24" height="24" viewBox="0 0 24 24" fill="none" xmlns="http://www.w3.org/2000/svg">
<path fill-rule="evenodd" clip-rule="evenodd" d="M21.7997 18.9994V5.99941C21.7997 4.99941 20.9997 4.19941 19.9997 4.19941L17.9997 4.19941C17.5997 4.19941 17.1997 4.49941 17.1997 4.99941C17.1997 5.49941 17.5997 5.79941 17.9997 5.79941L19.9997 5.79941C20.0997 5.79941 20.1997 5.89941 20.1997 5.99941L20.1997 18.9994C20.1997 19.0994 20.0997 19.1994 19.9997 19.1994L3.99971 19.1994C3.89971 19.1994 3.79971 19.0994 3.79971 18.9994L3.79971 5.99941C3.79971 5.89941 3.89971 5.79941 3.99971 5.79941H5.99971C6.39971 5.79941 6.79971 5.49941 6.79971 4.99941C6.79971 4.49941 6.39971 4.19941 5.99971 4.19941H3.99971C2.99971 4.19941 2.19971 4.99941 2.19971 5.99941L2.19971 18.9994C2.19971 19.9994 2.99971 20.7994 3.99971 20.7994L19.9997 20.7994C20.9997 20.7994 21.7997 19.9994 21.7997 18.9994Z" fill="black"/>
<path d="M11.1997 12.75C11.1997 13.25 11.5997 13.55 11.9997 13.55C12.3997 13.55 12.7997 13.15 12.7997 12.75V2.15L14.5997 3.35C14.8997 3.55 15.3997 3.45 15.5997 3.15C15.7997 2.85 15.6997 2.35 15.3997 2.15L12.3997 0.15C12.1997 -0.05 11.8997 -0.05 11.5997 0.15L8.59971 2.15C8.29971 2.35 8.19971 2.85 8.39971 3.15C8.59971 3.45 9.09971 3.55 9.39971 3.35L11.1997 2.15L11.1997 12.75Z" fill="black"/>
</svg>
