<svg width="24" height="24" viewBox="0 0 24 24" fill="none" xmlns="http://www.w3.org/2000/svg">
<path fill-rule="evenodd" clip-rule="evenodd" d="M17.31 6.75H6.09999L5.39999 3.62C5.21999 2.82 4.50999 2.25 3.68999 2.25H2.98999C2.57999 2.25 2.23999 2.59 2.23999 3C2.23999 3.41 2.57999 3.75 2.98999 3.75H3.68999C3.80999 3.75 3.90999 3.83 3.92999 3.95L4.74999 7.65L6.09999 15.31C6.24999 16.15 6.96999 16.76 7.81999 16.76H16.14C16.99 16.76 17.72 16.15 17.86 15.31L19.01 8.81C19.2 7.74 18.37 6.76 17.29 6.76L17.31 6.75ZM16.41 15.04C16.39 15.16 16.29 15.25 16.16 15.25H7.83999C7.71999 15.25 7.60999 15.16 7.58999 15.04L6.38999 8.25H17.3C17.46 8.25 17.57 8.39 17.55 8.54L16.4 15.04H16.41ZM6.99999 18.5C6.16999 18.5 5.49999 19.17 5.49999 20C5.49999 20.83 6.16999 21.5 6.99999 21.5C7.82999 21.5 8.49999 20.83 8.49999 20C8.49999 19.17 7.82999 18.5 6.99999 18.5ZM17 18.5C16.17 18.5 15.5 19.17 15.5 20C15.5 20.83 16.17 21.5 17 21.5C17.83 21.5 18.5 20.83 18.5 20C18.5 19.17 17.83 18.5 17 18.5Z" fill="#1D1D1D"/>
</svg>
