<svg width="24" height="24" viewBox="0 0 24 24" fill="none" xmlns="http://www.w3.org/2000/svg">
<path fill-rule="evenodd" clip-rule="evenodd" d="M16.5 6.25C15.5335 6.25 14.75 7.0335 14.75 8C14.75 8.9665 15.5335 9.75 16.5 9.75C17.4665 9.75 18.25 8.9665 18.25 8C18.25 7.0335 17.4665 6.25 16.5 6.25ZM13.25 8C13.25 6.20507 14.7051 4.75 16.5 4.75C18.0368 4.75 19.3245 5.81665 19.663 7.25H21C21.4142 7.25 21.75 7.58579 21.75 8C21.75 8.41421 21.4142 8.75 21 8.75H19.663C19.3245 10.1834 18.0368 11.25 16.5 11.25C14.7051 11.25 13.25 9.79493 13.25 8ZM2.25 8C2.25 7.58579 2.58579 7.25 3 7.25H10C10.4142 7.25 10.75 7.58579 10.75 8C10.75 8.41421 10.4142 8.75 10 8.75H3C2.58579 8.75 2.25 8.41421 2.25 8ZM7.5 14.25C6.5335 14.25 5.75 15.0335 5.75 16C5.75 16.9665 6.5335 17.75 7.5 17.75C8.4665 17.75 9.25 16.9665 9.25 16C9.25 15.0335 8.4665 14.25 7.5 14.25ZM4.33697 15.25C4.67555 13.8166 5.96321 12.75 7.5 12.75C9.29493 12.75 10.75 14.2051 10.75 16C10.75 17.7949 9.29493 19.25 7.5 19.25C5.96321 19.25 4.67555 18.1834 4.33697 16.75H3C2.58579 16.75 2.25 16.4142 2.25 16C2.25 15.5858 2.58579 15.25 3 15.25H4.33697ZM13.25 16C13.25 15.5858 13.5858 15.25 14 15.25L21 15.25C21.4142 15.25 21.75 15.5858 21.75 16C21.75 16.4142 21.4142 16.75 21 16.75L14 16.75C13.5858 16.75 13.25 16.4142 13.25 16Z" fill="#1D1D1D"/>
</svg>
