<svg width="24" height="24" viewBox="0 0 24 24" fill="none" xmlns="http://www.w3.org/2000/svg">
<path fill-rule="evenodd" clip-rule="evenodd" d="M9.30039 3.60036L6.50039 6.50036C6.20039 6.80036 6.20039 7.30036 6.50039 7.60036C6.80039 7.90036 7.30039 7.90036 7.60039 7.60036L9.30039 5.90036V17.0004C9.30039 17.4004 9.60039 17.8004 10.1004 17.8004C10.6004 17.8004 10.9004 17.5004 10.9004 17.0004V4.20036C10.8004 3.50036 9.80039 3.10036 9.30039 3.60036ZM17.5004 16.5004C17.2004 16.2004 16.7004 16.2004 16.4004 16.5004L14.7004 18.2004V7.00036C14.7004 6.60036 14.4004 6.20036 13.9004 6.20036C13.4004 6.20036 13.2004 6.60036 13.2004 7.00036V19.8004C13.2004 20.6004 14.1004 20.9004 14.7004 20.4004L17.5004 17.6004C17.8004 17.2004 17.8004 16.8004 17.5004 16.5004Z" fill="black"/>
</svg>
