<svg width="24" height="24" viewBox="0 0 24 24" fill="none" xmlns="http://www.w3.org/2000/svg">
<path fill-rule="evenodd" clip-rule="evenodd" d="M20.9999 11C20.3999 11 19.9999 11.4 19.9999 12C19.9999 13.8 19.3999 15.6 18.2999 17C17.1999 18.4 15.5999 19.4 13.7999 19.8C11.9999 20.2 10.1999 20 8.59992 19.2C6.99992 18.4 5.59992 17.1 4.89992 15.5C4.09992 13.9 3.89992 12 4.29992 10.3C4.59992 8.5 5.59992 6.9 6.99992 5.8C8.39992 4.7 10.1999 4 11.9999 4C13.7999 4 15.5999 4.6 16.9999 5.7C17.3999 6 17.9999 6 18.2999 5.5C18.5999 5.1 18.5999 4.4 18.0999 4.1C16.2999 2.7 14.0999 2 11.8999 2C9.69992 2 7.49992 2.8 5.69992 4.2C3.99992 5.6 2.69992 7.6 2.19992 9.8C1.69992 12 1.99992 14.3 2.99992 16.4C3.99992 18.4 5.59992 20.1 7.69992 21C9.69992 22 12.0999 22.2 14.2999 21.7C16.4999 21.2 18.4999 20 19.8999 18.2C21.2999 16.4 22.0999 14.2 22.0999 12C21.9999 11.4 21.5999 11 20.9999 11Z" fill="#FF8041"/>
</svg>
