<svg width="24" height="24" viewBox="0 0 24 24" fill="none" xmlns="http://www.w3.org/2000/svg">
<path d="M2.61557 9.4728L2.49783 8.47976L2.49782 8.47976L2.61557 9.4728ZM2.33496 10.3364L3.01392 9.60224L3.01391 9.60223L2.33496 10.3364ZM6.77367 14.4412L6.09471 15.1754L6.09472 15.1754L6.77367 14.4412ZM6.92437 14.9057L7.9052 15.1006L7.9052 15.1006L6.92437 14.9057ZM5.74609 20.8356L4.76527 20.6407L4.76527 20.6407L5.74609 20.8356ZM6.48109 21.3693L5.99266 20.4967L5.99264 20.4967L6.48109 21.3693ZM11.757 18.4163L12.2454 19.2889L12.2454 19.2889L11.757 18.4163ZM12.2453 18.4164L11.7568 19.289H11.7568L12.2453 18.4164ZM17.5206 21.3693L18.0091 20.4967H18.0091L17.5206 21.3693ZM18.2551 20.8356L17.2743 21.0304L17.2743 21.0305L18.2551 20.8356ZM17.0771 14.9058L18.058 14.7109L18.058 14.7109L17.0771 14.9058ZM17.2279 14.4412L17.9069 15.1754L17.9069 15.1753L17.2279 14.4412ZM21.6662 10.3365L20.9873 9.60227L20.9873 9.60229L21.6662 10.3365ZM21.3857 9.4728L21.5035 8.47976L21.5035 8.47976L21.3857 9.4728ZM15.3818 8.76101L15.2641 9.75406L15.2641 9.75406L15.3818 8.76101ZM14.9873 8.4739L14.0792 8.89274L14.0792 8.89275L14.9873 8.4739ZM12.4551 2.98391L13.3631 2.56507L13.3631 2.56507L12.4551 2.98391ZM11.5469 2.98396L10.6388 2.56511V2.56512L11.5469 2.98396ZM9.01465 8.47382L9.92271 8.89267L9.01465 8.47382ZM8.61914 8.761L8.73688 9.75405L8.73688 9.75405L8.61914 8.761ZM2.49782 8.47976C1.22673 8.63047 0.716261 10.2015 1.65601 11.0706L3.01391 9.60223C3.32716 9.89192 3.15701 10.4156 2.73331 10.4658L2.49782 8.47976ZM1.65601 11.0706L6.09471 15.1754L7.45262 13.7071L3.01392 9.60224L1.65601 11.0706ZM6.09472 15.1754C5.96637 15.0567 5.90984 14.8805 5.94355 14.7108L7.9052 15.1006C8.00669 14.5898 7.8363 14.0619 7.45262 13.7071L6.09472 15.1754ZM5.94355 14.7108L4.76527 20.6407L6.72692 21.0305L7.9052 15.1006L5.94355 14.7108ZM4.76527 20.6407C4.5156 21.8972 5.85354 22.8666 6.96953 22.2419L5.99264 20.4967C6.36402 20.2889 6.81028 20.611 6.72692 21.0305L4.76527 20.6407ZM6.96951 22.2419L12.2454 19.2889L11.2685 17.5437L5.99266 20.4967L6.96951 22.2419ZM12.2454 19.2889C12.0933 19.374 11.9082 19.3737 11.7568 19.289L12.7337 17.5438C12.2789 17.2892 11.7241 17.2887 11.2685 17.5437L12.2454 19.2889ZM11.7568 19.289L17.0322 22.2419L18.0091 20.4967L12.7337 17.5438L11.7568 19.289ZM17.0322 22.2419C18.1493 22.8672 19.4854 21.896 19.236 20.6407L17.2743 21.0305C17.1912 20.6122 17.6366 20.2882 18.0091 20.4967L17.0322 22.2419ZM19.236 20.6407L18.058 14.7109L16.0963 15.1006L17.2743 21.0304L19.236 20.6407ZM18.058 14.7109C18.0917 14.8807 18.0351 15.0568 17.9069 15.1754L16.549 13.707C16.1654 14.0617 15.9948 14.5898 16.0963 15.1007L18.058 14.7109ZM17.9069 15.1753L22.3452 11.0706L20.9873 9.60229L16.5489 13.707L17.9069 15.1753ZM22.3452 11.0706C23.2846 10.2019 22.775 8.63052 21.5035 8.47976L21.268 10.4658C20.8438 10.4156 20.6744 9.89164 20.9873 9.60227L22.3452 11.0706ZM21.5035 8.47976L15.4996 7.76797L15.2641 9.75406L21.268 10.4658L21.5035 8.47976ZM15.4996 7.76797C15.674 7.78864 15.8232 7.89871 15.8954 8.05506L14.0792 8.89275C14.297 9.3649 14.7444 9.69243 15.2641 9.75406L15.4996 7.76797ZM15.8954 8.05506L13.3631 2.56507L11.547 3.40275L14.0792 8.89274L15.8954 8.05506ZM13.3631 2.56507C12.8269 1.40256 11.1748 1.403 10.6388 2.56511L12.4549 3.40281C12.2763 3.79005 11.7258 3.79039 11.547 3.40276L13.3631 2.56507ZM10.6388 2.56512L8.10659 8.05498L9.92271 8.89267L12.4549 3.40281L10.6388 2.56512ZM8.10659 8.05498C8.1797 7.89649 8.32936 7.78835 8.5014 7.76796L8.73688 9.75405C9.25428 9.6927 9.70393 9.36697 9.92271 8.89267L8.10659 8.05498ZM8.5014 7.76796L2.49783 8.47976L2.7333 10.4658L8.73688 9.75405L8.5014 7.76796Z" fill="#1D1D1D"/>
</svg>
