<svg width="24" height="24" viewBox="0 0 24 24" fill="none" xmlns="http://www.w3.org/2000/svg">
<path fill-rule="evenodd" clip-rule="evenodd" d="M17.9999 5.40039H17.5999C17.5099 3.73039 16.1299 2.40039 14.4299 2.40039H7.5699C5.8199 2.40039 4.3999 3.82039 4.3999 5.57039V18.0004C4.3999 19.9904 6.0099 21.6004 7.9999 21.6004H13.9999C15.7799 21.6004 17.2599 20.3004 17.5499 18.6004H17.9999C18.8799 18.6004 19.5999 17.8804 19.5999 17.0004V7.00039C19.5999 6.12039 18.8799 5.40039 17.9999 5.40039ZM8.1699 3.60039H13.8299V4.25039C13.8299 4.47039 13.6499 4.65039 13.4299 4.65039H8.5699C8.3499 4.65039 8.1699 4.47039 8.1699 4.25039V3.60039ZM16.3999 18.0004C16.3999 19.3304 15.3299 20.4004 13.9999 20.4004H7.9999C6.6699 20.4004 5.5999 19.3304 5.5999 18.0004V5.57039C5.5999 4.69039 6.1799 3.95039 6.9699 3.69039V4.25039C6.9699 5.13039 7.6899 5.85039 8.5699 5.85039H13.4299C14.3099 5.85039 15.0299 5.13039 15.0299 4.25039V3.69039C15.8299 3.94039 16.3999 4.69039 16.3999 5.57039V18.0004ZM18.3999 17.0004C18.3999 17.2204 18.2199 17.4004 17.9999 17.4004H17.5999V6.60039H17.9999C18.2199 6.60039 18.3999 6.78039 18.3999 7.00039V17.0004ZM14.4999 7.40039H7.4999C6.8899 7.40039 6.3999 7.89039 6.3999 8.50039V10.5004C6.3999 11.1104 6.8899 11.6004 7.4999 11.6004H14.4999C15.1099 11.6004 15.5999 11.1104 15.5999 10.5004V8.50039C15.5999 7.89039 15.1099 7.40039 14.4999 7.40039ZM14.3999 10.4004H7.5999V8.60039H14.3999V10.4004ZM7.4999 13.7504C7.0899 13.7504 6.7499 14.0904 6.7499 14.5004C6.7499 14.9104 7.0899 15.2504 7.4999 15.2504C7.9099 15.2504 8.2499 14.9104 8.2499 14.5004C8.2499 14.0904 7.9099 13.7504 7.4999 13.7504ZM7.4999 16.2504C7.0899 16.2504 6.7499 16.5904 6.7499 17.0004C6.7499 17.4104 7.0899 17.7504 7.4999 17.7504C7.9099 17.7504 8.2499 17.4104 8.2499 17.0004C8.2499 16.5904 7.9099 16.2504 7.4999 16.2504ZM10.9999 13.7504C10.5899 13.7504 10.2499 14.0904 10.2499 14.5004C10.2499 14.9104 10.5899 15.2504 10.9999 15.2504C11.4099 15.2504 11.7499 14.9104 11.7499 14.5004C11.7499 14.0904 11.4099 13.7504 10.9999 13.7504ZM10.9999 16.2504C10.5899 16.2504 10.2499 16.5904 10.2499 17.0004C10.2499 17.4104 10.5899 17.7504 10.9999 17.7504C11.4099 17.7504 11.7499 17.4104 11.7499 17.0004C11.7499 16.5904 11.4099 16.2504 10.9999 16.2504ZM14.4999 13.7504C14.0899 13.7504 13.7499 14.0904 13.7499 14.5004C13.7499 14.9104 14.0899 15.2504 14.4999 15.2504C14.9099 15.2504 15.2499 14.9104 15.2499 14.5004C15.2499 14.0904 14.9099 13.7504 14.4999 13.7504ZM14.4999 16.2504C14.0899 16.2504 13.7499 16.5904 13.7499 17.0004C13.7499 17.4104 14.0899 17.7504 14.4999 17.7504C14.9099 17.7504 15.2499 17.4104 15.2499 17.0004C15.2499 16.5904 14.9099 16.2504 14.4999 16.2504Z" fill="#1D1D1D"/>
</svg>
