<svg width="24" height="24" viewBox="0 0 24 24" fill="none" xmlns="http://www.w3.org/2000/svg">
<path fill-rule="evenodd" clip-rule="evenodd" d="M21 9.75023C21.41 9.75023 21.75 9.41023 21.75 9.00023V8.97023C21.75 8.53023 21.75 8.15023 21.73 7.85023C21.71 7.53023 21.66 7.23023 21.54 6.94023C21.26 6.27023 20.73 5.73023 20.05 5.45023C19.76 5.33023 19.46 5.28023 19.14 5.26023C18.84 5.24023 18.46 5.24023 18.02 5.24023H5.96999C5.52999 5.24023 5.14999 5.24023 4.84999 5.26023C4.52999 5.28023 4.22999 5.33023 3.93999 5.45023C3.26999 5.73023 2.72999 6.26023 2.44999 6.94023C2.32999 7.23023 2.27999 7.53023 2.25999 7.85023C2.23999 8.15023 2.23999 8.53023 2.23999 8.97023V9.00023C2.23999 9.41023 2.57999 9.75023 2.98999 9.75023C4.22999 9.75023 5.23999 10.7602 5.23999 12.0002C5.23999 13.2402 4.22999 14.2502 2.98999 14.2502C2.78999 14.2502 2.59999 14.3302 2.45999 14.4702C2.31999 14.6102 2.23999 14.8002 2.23999 15.0002V15.0302C2.23999 15.4702 2.23999 15.8502 2.25999 16.1502C2.27999 16.4702 2.32999 16.7702 2.44999 17.0602C2.72999 17.7302 3.25999 18.2702 3.93999 18.5502C4.22999 18.6702 4.52999 18.7202 4.84999 18.7402C5.14999 18.7602 5.52999 18.7602 5.96999 18.7602H18.02C18.46 18.7602 18.84 18.7602 19.14 18.7402C19.46 18.7202 19.76 18.6702 20.05 18.5502C20.72 18.2702 21.26 17.7402 21.54 17.0602C21.66 16.7702 21.71 16.4702 21.73 16.1502C21.75 15.8502 21.75 15.4702 21.75 15.0302V15.0002C21.75 14.5902 21.41 14.2502 21 14.2502C19.76 14.2502 18.75 13.2402 18.75 12.0002C18.75 10.7602 19.76 9.75023 21 9.75023ZM12.75 17.2502H5.99999C5.51999 17.2502 5.19999 17.2502 4.95999 17.2302C4.71999 17.2102 4.59999 17.1802 4.52999 17.1502C4.21999 17.0202 3.97999 16.7802 3.84999 16.4702C3.81999 16.3902 3.78999 16.2802 3.76999 16.0302C3.76999 15.9202 3.75999 15.8002 3.75999 15.6602C5.46999 15.3102 6.75999 13.8002 6.75999 11.9902C6.75999 10.1802 5.46999 8.66023 3.75999 8.32023C3.75999 8.18023 3.75999 8.06023 3.76999 7.95023C3.78999 7.71023 3.81999 7.59023 3.84999 7.51023C3.97999 7.20023 4.21999 6.96023 4.52999 6.83023C4.60999 6.80023 4.71999 6.77023 4.95999 6.75023C5.20999 6.73023 5.52999 6.73023 5.99999 6.73023H12.75V17.2302V17.2502ZM20.25 15.6702C20.25 15.8102 20.25 15.9302 20.24 16.0402C20.22 16.2802 20.19 16.4002 20.16 16.4802C20.03 16.7902 19.79 17.0302 19.48 17.1602C19.4 17.1902 19.29 17.2202 19.04 17.2402C18.79 17.2602 18.47 17.2602 18 17.2602H14.25V6.75023H18C18.48 6.75023 18.8 6.75023 19.04 6.77023C19.28 6.79023 19.4 6.82023 19.48 6.85023C19.79 6.98023 20.03 7.22023 20.16 7.53023C20.19 7.61023 20.22 7.72023 20.24 7.97023C20.24 8.08023 20.25 8.20023 20.25 8.34023C18.54 8.69023 17.25 10.2002 17.25 12.0102C17.25 13.8202 18.54 15.3402 20.25 15.6802V15.6702Z" fill="#1D1D1D"/>
</svg>
