<svg width="24" height="24" viewBox="0 0 24 24" fill="none" xmlns="http://www.w3.org/2000/svg">
<path fill-rule="evenodd" clip-rule="evenodd" d="M19.9992 5.2002H16.7992V5.0002C16.7992 3.5002 15.5992 2.2002 13.9992 2.2002H9.99922C8.49922 2.2002 7.29922 3.5002 7.29922 5.0002V5.2002H3.99922C3.59922 5.2002 3.19922 5.6002 3.19922 6.0002C3.19922 6.4002 3.59922 6.8002 3.99922 6.8002H5.29922V19.0002C5.29922 20.5002 6.49922 21.8002 8.09922 21.8002H16.0992C17.5992 21.8002 18.8992 20.6002 18.8992 19.0002V6.8002H19.9992C20.3992 6.8002 20.7992 6.5002 20.7992 6.0002C20.7992 5.5002 20.3992 5.2002 19.9992 5.2002ZM8.79922 5.0002C8.79922 4.3002 9.39922 3.8002 9.99922 3.8002H13.9992C14.6992 3.8002 15.1992 4.4002 15.1992 5.0002V5.2002H8.79922V5.0002ZM17.2992 19.0002C17.2992 19.7002 16.6992 20.2002 16.0992 20.2002H7.99922C7.29922 20.2002 6.79922 19.6002 6.79922 19.0002V6.8002H17.2992V19.0002Z" fill="black"/>
</svg>
