<svg width="24" height="24" viewBox="0 0 24 24" fill="none" xmlns="http://www.w3.org/2000/svg">
<path fill-rule="evenodd" clip-rule="evenodd" d="M4.10078 2.7998C4.50078 2.7998 4.90078 3.0998 4.90078 3.5998V6.2998C6.00078 5.1998 7.30078 4.3998 8.70078 3.8998C10.6008 3.2998 12.6008 3.2998 14.5008 3.8998C16.4008 4.3998 18.0008 5.5998 19.1008 7.1998C20.2008 8.7998 20.8008 10.6998 20.8008 12.6998C20.8008 14.6998 20.1008 16.5998 18.9008 18.0998C17.7008 19.6998 16.0008 20.7998 14.1008 21.2998C12.2008 21.7998 10.2008 21.7998 8.30078 21.0998C6.40078 20.3998 4.90078 19.0998 3.80078 17.4998C3.60078 17.1998 3.70078 16.6998 4.00078 16.4998C4.30078 16.2998 4.80078 16.3998 5.00078 16.6998C5.90078 18.0998 7.20078 19.0998 8.80078 19.6998C10.4008 20.2998 12.1008 20.3998 13.7008 19.9998C15.3008 19.4998 16.7008 18.5998 17.7008 17.2998C18.7008 15.9998 19.3008 14.3998 19.3008 12.6998C19.3008 11.0998 18.8008 9.3998 17.9008 8.0998C16.9008 6.7998 15.6008 5.6998 14.0008 5.1998C12.4008 4.6998 10.7008 4.6998 9.10078 5.1998C7.70078 5.5998 6.50078 6.4998 5.60078 7.5998H8.70078C9.10078 7.5998 9.50078 7.8998 9.50078 8.3998C9.50078 8.7998 9.20078 9.1998 8.70078 9.1998H4.10078C3.70078 9.1998 3.30078 8.8998 3.30078 8.3998V3.4998C3.30078 3.0998 3.70078 2.7998 4.10078 2.7998Z" fill="#1D1D1D"/>
</svg>
