<svg width="24" height="24" viewBox="0 0 24 24" fill="none" xmlns="http://www.w3.org/2000/svg">
<path fill-rule="evenodd" clip-rule="evenodd" d="M18.6005 14.8002C18.2005 13.8002 17.6005 12.8002 17.1005 12.1002C16.9005 11.8002 16.4005 11.7002 16.1005 11.9002C15.8005 12.1002 15.7005 12.6002 15.9005 12.9002C16.4005 13.6002 16.9005 14.5002 17.3005 15.4002C17.7005 16.3002 17.8005 17.1002 17.8005 17.8002C17.7005 18.4002 17.4005 19.0002 16.6005 19.5002C15.8005 20.0002 14.4005 20.3002 12.2005 20.3002C10.0005 20.3002 8.60047 20.0002 7.80047 19.5002C7.00047 19.0002 6.60047 18.5002 6.50047 17.8002C6.40047 17.1002 6.50047 16.3002 6.90047 15.4002C7.20047 14.5002 7.70047 13.7002 8.20047 13.0002C8.40047 12.7002 8.30047 12.2002 8.00047 12.0002C7.70047 11.8002 7.20047 11.9002 7.00047 12.2002C6.50047 13.0002 5.90047 13.9002 5.50047 14.9002C5.00047 15.8002 4.80047 16.9002 5.00047 18.0002C5.20047 19.1002 5.80047 20.1002 7.00047 20.8002C8.20047 21.5002 9.90047 21.8002 12.2005 21.8002C14.5005 21.8002 16.2005 21.5002 17.3005 20.8002C18.5005 20.1002 19.1005 19.1002 19.2005 18.0002C19.3005 16.9002 19.0005 15.8002 18.6005 14.8002ZM12.1005 11.8002C14.7005 11.8002 16.9005 9.7002 16.9005 7.0002C16.9005 4.3002 14.8005 2.2002 12.1005 2.2002C9.50047 2.2002 7.40047 4.4002 7.40047 7.0002C7.40047 9.6002 9.50047 11.8002 12.1005 11.8002ZM12.1005 3.8002C13.9005 3.8002 15.3005 5.3002 15.3005 7.0002C15.3005 8.7002 13.9005 10.2002 12.1005 10.2002C10.3005 10.2002 8.90047 8.8002 8.90047 7.0002C8.90047 5.2002 10.3005 3.8002 12.1005 3.8002Z" fill="black"/>
</svg>
