<svg width="24" height="24" viewBox="0 0 24 24" fill="none" xmlns="http://www.w3.org/2000/svg">
<path d="M6.75 6C6.34 6 6 6.34 6 6.75C6 7.16 6.34 7.5 6.75 7.5H16.75C17.16 7.5 17.5 7.16 17.5 6.75C17.5 6.34 17.16 6 16.75 6H6.75ZM19.75 7.5C20.16 7.5 20.5 7.16 20.5 6.75V6.25C20.5 4.45 19.04 3 17.25 3H6.75C4.68 3 3 4.68 3 6.75V16.75C3 18.82 4.68 20.5 6.75 20.5H16.75C18.82 20.5 20.5 18.82 20.5 16.75V12.75C20.5 10.68 18.82 9 16.75 9H7.75C6.35 9 5.53 8.69 5.08 8.35C4.65 8.02 4.5 7.62 4.5 7.25V6.75C4.5 5.51 5.51 4.5 6.75 4.5H17.25C18.22 4.5 19 5.28 19 6.25V6.75C19 7.16 19.34 7.5 19.75 7.5ZM7.75 10.5H16.75C17.99 10.5 19 11.51 19 12.75V16.75C19 17.99 17.99 19 16.75 19H6.75C5.51 19 4.5 17.99 4.5 16.75V9.77C5.28 10.24 6.36 10.5 7.75 10.5ZM16.25 15.75C16.8 15.75 17.25 15.3 17.25 14.75C17.25 14.2 16.8 13.75 16.25 13.75C15.7 13.75 15.25 14.2 15.25 14.75C15.25 15.3 15.7 15.75 16.25 15.75Z" fill="black"/>
</svg>
